<svg width="107" height="40" viewBox="0 0 107 40" fill="none" xmlns="http://www.w3.org/2000/svg">
<g clip-path="url(#clip0_2456_379)">
<path d="M0 27.5913H6.49326C8.26569 27.5913 9.50981 27.5233 10.6687 27.0296C12.5945 26.1786 13.2251 24.4935 13.2251 23.302C13.2251 22.4339 12.9183 21.5828 12.373 20.9871C11.5208 20.0339 10.2767 19.8296 9.33938 19.6764C10.1745 19.5062 11.6572 19.1998 12.3559 17.6339C12.4071 17.4807 12.6286 16.9871 12.6286 16.153C12.6286 14.6892 11.8617 13.1913 9.96996 12.5786C9.03261 12.2722 7.56694 12.2041 5.94789 12.2041H0V27.5913ZM6.83411 15.0807C7.56694 15.0807 8.86219 15.1488 8.86219 16.6296C8.86219 18.2296 7.44765 18.2637 6.56143 18.2807H3.66417V15.0807H6.83411ZM7.00454 21.0722C7.7885 21.1062 9.32234 21.1233 9.32234 22.9786C9.32234 24.7318 7.63511 24.7828 6.35691 24.7998H3.66417V21.0722H7.00454Z" fill="#0F0E0E"/>
<path d="M18.6657 16.2041H15.3936V27.5913H18.768V21.1913C18.768 19.7445 19.2452 19.5062 20.8472 19.2169L21.972 19.0467V16.085C20.2166 16.2552 19.4156 16.7658 18.6657 17.3956V16.2041Z" fill="#0F0E0E"/>
<path d="M29.4027 15.8639C25.0398 15.6256 22.8413 18.4001 22.8413 21.8894C22.8413 26.0937 25.7556 27.915 28.9767 27.915C33.4248 27.915 35.0779 24.766 35.0779 21.8894C35.0779 19.8128 34.0554 16.1362 29.4027 15.8639ZM28.7722 18.5362C29.2494 18.4852 30.0333 18.5022 30.7321 19.166C31.3626 19.7618 31.6694 20.749 31.6694 22.0086C31.6694 23.7958 30.7832 25.2596 28.9767 25.2596C27.102 25.2596 26.2158 23.6767 26.2158 21.8554C26.2158 21.0724 26.3691 20.2894 26.7952 19.6426C27.2554 18.9277 27.8178 18.5873 28.7722 18.5362Z" fill="#0F0E0E"/>
<path d="M43.0368 15.8639C38.6738 15.6256 36.4753 18.4001 36.4753 21.8894C36.4753 26.0937 39.3896 27.915 42.6107 27.915C47.0588 27.915 48.712 24.766 48.712 21.8894C48.712 19.8128 47.6894 16.1362 43.0368 15.8639ZM42.4062 18.5362C42.8834 18.4852 43.6673 18.5022 44.3661 19.166C44.9967 19.7618 45.3034 20.749 45.3034 22.0086C45.3034 23.7958 44.4172 25.2596 42.6107 25.2596C40.736 25.2596 39.8498 23.6767 39.8498 21.8554C39.8498 21.0724 40.0032 20.2894 40.4292 19.6426C40.8894 18.9277 41.4518 18.5873 42.4062 18.5362Z" fill="#0F0E0E"/>
<path d="M50.8765 27.5913H54.1487V24.0339L55.5802 22.6892L58.5116 27.5913H62.3973L57.9662 20.2722L61.886 16.2211H57.8469L54.1657 20.119V12.2041H50.8765V27.5913Z" fill="#0F0E0E"/>
<path d="M64.1569 16.4766H62.3503V18.5362H64.1398V27.5915H67.4802V18.5362H69.6957V16.4766H67.4461C67.4291 14.9617 67.4972 14.6894 68.7584 14.6894H69.5935V12.1872C68.9118 12.1021 68.2301 12 67.5654 12C65.9634 12 65.0601 12.5787 64.6341 13.1404C64.208 13.7532 64.1739 14.5021 64.1569 15.0809V16.4766ZM71.383 14.8085H74.6892V12.1872H71.383V14.8085ZM71.383 27.5915H74.6892V16.2213H71.383V27.5915Z" fill="#0F0E0E"/>
<path d="M85.816 23.4041C85.4069 24.2211 84.7763 25.4126 82.9357 25.4126C81.1292 25.4126 80.3282 23.9999 80.3453 22.5871H88.4746C88.4405 21.2935 88.3553 19.0807 86.8726 17.4807C85.4069 15.9148 83.447 15.8467 82.7653 15.8467C78.266 15.8467 76.9197 19.3701 76.9197 22.1275C76.9197 25.8552 79.2886 27.9999 82.6801 27.9999C84.5037 27.9999 85.9864 27.302 86.9749 26.3999C87.5713 25.8552 87.9633 25.2765 88.3553 24.6977L85.816 23.4041ZM80.3623 20.4935C80.4816 20.0169 80.5839 19.4892 81.044 18.9786C81.3678 18.6382 81.9302 18.2467 82.7483 18.2467C83.3277 18.2467 83.9583 18.468 84.3844 18.8765C84.8616 19.3701 84.9468 20.0169 85.0149 20.4935H80.3623Z" fill="#0F0E0E"/>
<path d="M90.4216 12.2041V27.5913H93.779V12.2041H90.4216Z" fill="#0F0E0E"/>
<path d="M103.745 12.2041V17.0722C103.148 16.6126 102.245 15.9147 100.745 15.9147C98.4447 15.9147 96.0076 17.685 96.0076 21.9743C96.0076 22.7062 96.0076 25.0041 97.6607 26.5871C98.564 27.4552 99.7399 27.8977 100.865 27.8977C102.552 27.8977 103.421 27.0467 103.949 26.519V27.5913H107V12.2041H103.745ZM102.637 25.0892C102.313 25.3105 101.921 25.4296 101.546 25.4296C99.8422 25.4296 99.4161 23.4892 99.4161 21.9062C99.4161 21.3956 99.4161 18.4169 101.785 18.4169C102.467 18.4169 102.944 18.8935 103.097 19.0977C103.813 19.9658 103.813 21.3786 103.813 21.9062C103.813 22.536 103.813 24.2722 102.637 25.0892Z" fill="#0F0E0E"/>
</g>
<defs>
<clipPath id="clip0_2456_379">
<rect width="107" height="16" fill="white" transform="translate(0 12)"/>
</clipPath>
</defs>
</svg>
