<svg width="101" height="40" viewBox="0 0 101 40" fill="none" xmlns="http://www.w3.org/2000/svg">
<path fill-rule="evenodd" clip-rule="evenodd" d="M82.3335 20.3533C82.2132 20.233 82.5874 17.8273 82.1263 16.9118C81.7388 16.0966 79.3264 16.2436 78.7183 16.2436C78.6181 16.2436 78.5179 16.1901 78.5981 16.0699C78.6782 15.9496 79.1393 15.4417 79.3131 15.1744C79.3598 15.0875 79.3131 15.0742 79.3131 15.0541L77.6625 14.867C74.1209 14.3926 73.1051 12.2542 72.9849 11.459C72.9849 11.2051 73.1185 11.1382 73.2588 11.3387C74.8827 13.6842 76.7537 13.7176 76.7871 13.5773C76.8205 13.437 75.023 11.8132 75.5776 9.91535C76.0922 8.18461 80.0749 5.23766 80.4491 4.8434C80.8233 4.44914 80.4491 3.70739 79.5002 3.92791C79.1727 3.99473 78.9723 4.18184 78.8319 4.11502C78.6916 4.04819 79.0859 3.7408 78.8319 3.54033C78.578 3.33986 78.4577 3.45346 78.3575 3.35322C78.2572 3.25299 78.2706 3.02578 78.3575 3.01242C78.6803 2.99586 79.0037 2.99586 79.3264 3.01242C80.3756 3.04583 81.4781 3.36659 81.5316 4.40236C81.5984 5.77894 77.5222 8.30489 77.7494 10.1492C77.8162 10.6638 78.7985 10.6638 79.5269 10.6638C80.2553 10.6638 81.8724 9.99554 82.8213 9.88194C83.3091 9.81512 83.5296 10.3564 84.552 10.4099C86.2961 10.4767 87.3319 9.94877 89.5705 10.049C90.3657 10.2361 90.2387 12.9358 90.1986 13.5773C90.1986 13.6976 90.1986 13.7176 90.2521 13.7176C91.1684 13.602 92.0956 13.602 93.0119 13.7176C96.3063 14.1453 99.6943 15.1945 100.035 18.9433C100.117 20.479 99.9913 22.0188 99.6609 23.5207C99.5366 24.2668 99.4918 25.0239 99.5272 25.7794C99.5439 25.9726 99.5729 26.1646 99.6141 26.3541C99.6141 26.5078 99.6141 26.5612 99.5072 26.5612C99.4009 26.5783 99.2926 26.5783 99.1864 26.5612C99.1196 26.5212 98.9993 26.4877 98.9525 26.7751C98.752 28.067 98.7859 29.3844 99.0528 30.6642C99.0862 30.8313 99.1062 30.9516 98.9993 30.9516H96.2863C96.0992 30.9516 96.2061 30.711 96.2863 30.5774C96.3803 30.3598 96.4606 30.1367 96.5268 29.9091C96.5809 28.6564 96.2422 27.4181 95.5579 26.3675C95.2562 26.0373 94.8774 25.787 94.4553 25.6391C92.7714 25.1064 91.0389 24.7416 89.2831 24.5498C88.9624 24.5498 88.6684 24.6501 88.6684 25.0577C88.6684 26.04 89.7041 28.8266 90.2655 30.3368C90.3991 30.691 90.506 30.8781 90.232 30.8781H87.3453C87.1782 30.8781 87.245 30.7244 87.2651 30.6576C87.5324 29.9893 87.5524 29.7421 87.4655 29.4881C86.5501 26.8152 84.7525 23.2802 84.0776 20.5137C84.0776 20.4134 84.0776 20.4268 83.9573 20.4268C83.4149 20.4579 82.8708 20.4332 82.3335 20.3533Z" fill="#0F0E0E"/>
<path d="M13.7592 23.0596L16.539 30.8446H13.3983L12.8905 29.1673H10.3645L9.89009 30.8446H6.90308L9.63616 23.0596H13.7592ZM12.5163 27.2829L11.6676 24.6099L10.7722 27.2829H12.5163Z" fill="#0F0E0E"/>
<path d="M47.5116 23.0928C48.848 23.0928 50.1845 23.5204 50.1845 25.0106C50.2078 25.4725 50.0543 25.9258 49.7551 26.2784C49.4559 26.631 49.0335 26.8563 48.5741 26.9084C49.0317 26.959 49.457 27.1687 49.7757 27.5009C50.0945 27.8331 50.2865 28.2667 50.3181 28.726C50.3181 30.6439 48.7411 30.8644 47.1106 30.8644H42.6602V23.0928H47.5116ZM46.409 26.0598C46.5144 26.0719 46.6212 26.0619 46.7225 26.0303C46.8238 25.9987 46.9174 25.9464 46.9973 25.8765C47.0772 25.8067 47.1416 25.721 47.1865 25.6248C47.2313 25.5286 47.2555 25.4241 47.2576 25.318C47.2638 25.209 47.2456 25.1 47.2043 24.999C47.1631 24.8979 47.0999 24.8073 47.0193 24.7337C46.9386 24.6601 46.8426 24.6054 46.7382 24.5735C46.6338 24.5417 46.5236 24.5335 46.4156 24.5495H45.4734V26.0598H46.409ZM46.409 29.2673C46.5233 29.2824 46.6395 29.2732 46.7501 29.2403C46.8606 29.2075 46.963 29.1518 47.0507 29.0768C47.1383 29.0018 47.2091 28.9092 47.2586 28.805C47.308 28.7008 47.335 28.5874 47.3378 28.4721C47.3378 27.844 46.9101 27.6702 46.409 27.6769H45.4734V29.2673H46.409Z" fill="#0F0E0E"/>
<path d="M37.7088 29.0403C38.8581 29.0403 38.9784 27.764 38.9784 26.9354C38.9784 26.2204 38.8247 24.8171 37.7088 24.8171C36.5928 24.8171 36.4191 26.2204 36.4191 26.9354C36.4191 27.764 36.6062 29.0403 37.6887 29.0403H37.7088ZM37.7088 22.9326C40.3817 22.9326 42.0122 24.356 42.0122 26.9421C42.0122 29.5282 40.4018 30.9515 37.7088 30.9515C35.0158 30.9515 33.3652 29.5616 33.3652 26.9421C33.3652 24.3226 34.9556 22.9326 37.6887 22.9326H37.7088Z" fill="#0F0E0E"/>
<path d="M21.691 23.0596C23.562 23.0596 24.7114 23.6343 24.7114 25.1311C24.7114 26.334 24.0432 26.9287 22.9139 27.2027C23.1867 27.238 23.4482 27.3337 23.6794 27.4828C23.9106 27.632 24.1056 27.8307 24.2503 28.0647C24.6909 28.9482 24.9994 29.8915 25.1658 30.8646H22.0518C21.9304 30.0936 21.7312 29.3368 21.4571 28.606C21.3883 28.4717 21.2809 28.3611 21.1487 28.2885C21.0165 28.2158 20.8656 28.1844 20.7154 28.1983H19.7798V30.8713H16.9131V23.0596H21.691ZM20.7688 26.4676C21.3101 26.4676 21.711 26.3206 21.711 25.6056C21.711 24.8906 21.2967 24.7903 20.7421 24.7903H19.7798V26.4676H20.7688Z" fill="#0F0E0E"/>
<path d="M66.0151 30.8646H71.7286V28.5592H69.0022V23.0596H66.0151V30.8646Z" fill="#0F0E0E"/>
<path d="M32.8704 26.8958H30.3111V28.9807C30.0772 29.0375 29.8364 29.06 29.596 29.0475C28.4133 29.0475 27.9722 28.0986 27.9722 27.0428C27.9722 25.6328 28.9545 24.871 30.4447 24.871C31.156 24.8546 31.8604 25.0129 32.4962 25.3321V23.2137C31.5425 22.9867 30.5624 22.8901 29.5827 22.9264C27.0902 22.9264 24.905 24.2295 24.905 26.8423C24.905 29.6289 26.9699 30.9988 29.5827 30.9988C30.6946 31.0184 31.803 30.8697 32.8704 30.5577V26.8958Z" fill="#0F0E0E"/>
<path d="M53.8666 23.0596H50.8662V27.7907C50.8662 30.1028 52.6504 30.9983 54.8222 30.9983C57.1744 30.9983 58.738 30.1697 58.738 27.6571V23.0596H55.8045V27.7373C55.8045 28.5057 55.6307 29.027 54.8556 29.027C54.0804 29.027 53.8666 28.4656 53.8666 27.7239V23.0596Z" fill="#0F0E0E"/>
<path d="M59.5864 30.8646H65.3667V28.5592H62.5734V23.0596H59.5864V30.8646Z" fill="#0F0E0E"/>
<path d="M6.81601 28.6058C6.29528 28.7967 5.74667 28.9006 5.1922 28.9132C4.91498 28.9457 4.63402 28.9173 4.36893 28.8299C4.10384 28.7426 3.86101 28.5984 3.65739 28.4075C3.45377 28.2166 3.29427 27.9836 3.19002 27.7247C3.08578 27.4658 3.0393 27.1872 3.05384 26.9085C3.05384 25.6188 4.02278 24.9372 5.29243 24.9372C5.80051 24.9598 6.30256 25.0566 6.7826 25.2245V23.1597C6.09 23.0149 5.38515 22.9366 4.67766 22.9258C2.18513 22.9258 0 24.2289 0 26.8417C0 29.6282 2.07153 30.9848 4.67766 30.9848C5.40494 30.9728 6.12783 30.8695 6.82938 30.6774L6.81601 28.6058Z" fill="#0F0E0E"/>
<path d="M67.0508 14.1726L62.0791 18.8503V21.8306H71.4344V19.1577H66.4694L71.7284 14.2728V11.5264H53.0713V14.1993H56.0383V21.8039H59.9942V14.1726H67.0508Z" fill="#0F0E0E"/>
<path d="M52.0357 11.5264H48.0864V21.8039H52.0357V11.5264Z" fill="#0F0E0E"/>
<path d="M32.3962 21.8039H35.7708L35.8042 13.7316H35.8711L37.8223 21.8039H41.0967L43.1148 13.7316H43.1482L43.2016 21.8039H46.7433V11.5264H40.9296L39.6065 17.1596H39.5865L38.25 11.5264H32.3962V21.8039Z" fill="#0F0E0E"/>
<path d="M27.0905 15.0747H24.4442V11.5264H20.4883V21.8039H24.4442V18.1085H27.0905V21.8039H31.0197V11.5264H27.0905V15.0747Z" fill="#0F0E0E"/>
<path d="M19.319 18.8567C18.6292 19.108 17.9014 19.2391 17.1673 19.2443C15.5034 19.2443 14.2471 18.3489 14.2471 16.5713C14.2471 14.7938 15.5836 13.9986 17.3009 13.9986C17.9841 14.0225 18.6598 14.1487 19.3056 14.3728V11.6665C18.3683 11.4601 17.412 11.3526 16.4523 11.3457C13.1111 11.3457 10.2109 13.0564 10.2109 16.4978C10.2109 20.1799 12.9908 21.9774 16.4523 21.9774C17.4223 21.9653 18.3864 21.8237 19.319 21.5564V18.8567Z" fill="#0F0E0E"/>
<path d="M9.02102 11.7002C7.88306 11.4758 6.72611 11.3617 5.56624 11.3594C3.20736 11.3594 0.0666504 11.8472 0.0666504 14.7006C0.0666504 18.71 5.7333 17.4337 5.7333 18.8236C5.7333 19.3515 4.69753 19.5386 3.78204 19.5386C2.58057 19.5432 1.38946 19.3164 0.273804 18.8704V21.5434C1.67315 21.8726 3.1063 22.0363 4.54383 22.0312C6.83589 22.0312 9.68257 21.3629 9.68257 18.5897C9.68257 14.6204 4.03597 15.9168 4.03597 14.5335C4.03597 13.8653 5.37245 13.8653 5.96718 13.8653C7.00439 13.853 8.03641 14.0134 9.02102 14.3397V11.7002Z" fill="#0F0E0E"/>
</svg>
