<svg width="122" height="40" viewBox="0 0 122 40" fill="none" xmlns="http://www.w3.org/2000/svg">
<g clip-path="url(#clip0_2456_380)">
<path d="M14.152 12.5099L7.076 17.0198L14.152 21.5297L7.076 26.0396L0 21.5053L7.076 16.9954L0 12.5099L7.076 8L14.152 12.5099ZM7.0394 27.4901L14.1154 22.9802L21.1914 27.4901L14.1154 32L7.0394 27.4901ZM14.152 21.5053L21.228 16.9954L14.152 12.5099L21.1914 8L28.2674 12.5099L21.1914 17.0198L28.2674 21.5297L21.1914 26.0396L14.152 21.5053Z" fill="#0F0E0E"/>
<path d="M33.8184 12.5099H39.5402C43.188 12.5099 46.2014 14.6186 46.2014 19.4333V20.4449C46.2014 25.2961 43.3832 27.4779 39.65 27.4779H33.8184V12.5099ZM37.0148 15.2281V24.7476H39.467C41.541 24.7476 42.9318 23.3947 42.9318 20.384V19.5917C42.9318 16.581 41.4678 15.2281 39.3572 15.2281H37.0148ZM47.8972 15.3743H50.4592L50.874 18.19C51.362 16.2763 52.6064 15.2525 54.8634 15.2525H55.6564V18.4825H54.3388C51.7402 18.4825 51.1058 19.3845 51.1058 21.9442V27.5145H47.946V15.3743H47.8972ZM56.2908 21.6882V21.3469C56.2908 17.288 58.8894 15.0696 62.4274 15.0696C66.0386 15.0696 68.564 17.288 68.564 21.3469V21.6882C68.564 25.674 66.1118 27.8192 62.4274 27.8192C58.5112 27.7827 56.2908 25.6862 56.2908 21.6882ZM65.331 21.6516V21.3469C65.331 19.092 64.1964 17.739 62.3908 17.739C60.6218 17.739 59.4506 18.9823 59.4506 21.3469V21.6516C59.4506 23.8335 60.5852 25.0767 62.3908 25.0767C64.1964 25.0402 65.331 23.8335 65.331 21.6516ZM70.2232 15.3743H72.8584L73.1634 17.6659C73.7978 16.1301 75.152 15.0696 77.1528 15.0696C80.2394 15.0696 82.2768 17.288 82.2768 21.3957V21.737C82.2768 25.7227 80.0198 27.8314 77.1528 27.8314C75.2374 27.8314 73.9198 26.966 73.2732 25.5765V31.7075H70.1866L70.2232 15.3743ZM79.0682 21.6516V21.3835C79.0682 18.9701 77.8238 17.7756 76.1646 17.7756C74.3956 17.7756 73.2244 19.1285 73.2244 21.3835V21.6151C73.2244 23.7603 74.359 25.1133 76.128 25.1133C77.9458 25.0767 79.0682 23.9188 79.0682 21.6516ZM86.9494 25.2718L86.681 27.4901H83.9726V11.3154H87.0592V17.5196C87.7424 15.935 89.0966 15.0696 91.012 15.0696C93.9156 15.1062 96.0628 17.1052 96.0628 21.1275V21.5054C96.0628 25.5277 94.0254 27.8314 90.9388 27.8314C88.9014 27.7827 87.5838 26.8441 86.9494 25.2718ZM92.8176 21.5054V21.2007C92.8176 18.9823 91.6098 17.739 89.914 17.739C88.1816 17.739 86.9738 19.1285 86.9738 21.2372V21.5054C86.9738 23.7603 88.145 25.0767 89.8774 25.0767C91.7318 25.0767 92.8176 23.9188 92.8176 21.5054ZM97.417 21.6882V21.3469C97.417 17.288 100.016 15.0696 103.554 15.0696C107.165 15.0696 109.69 17.288 109.69 21.3469V21.6882C109.69 25.674 107.201 27.8192 103.554 27.8192C99.6374 27.7827 97.417 25.6862 97.417 21.6882ZM106.482 21.6516V21.3469C106.482 19.092 105.347 17.739 103.541 17.739C101.772 17.739 100.601 18.9823 100.601 21.3469V21.6516C100.601 23.8335 101.736 25.0767 103.541 25.0767C105.359 25.0402 106.482 23.8335 106.482 21.6516ZM113.826 21.2007L109.568 15.3743H113.216L115.668 19.0188L118.157 15.3743H121.768L117.449 21.1641L122 27.4901H118.425L115.644 23.4678L112.935 27.4901H109.202L113.826 21.2007Z" fill="#0F0E0E"/>
</g>
<defs>
<clipPath id="clip0_2456_380">
<rect width="122" height="24" fill="white" transform="translate(0 8)"/>
</clipPath>
</defs>
</svg>
