<svg width="73" height="40" viewBox="0 0 73 40" fill="none" xmlns="http://www.w3.org/2000/svg">
<path d="M55.6013 11.3155C55.2288 10.9009 54.601 10.5076 53.8454 10.5076C51.4192 10.5076 50.6211 12.6761 50.6211 14.7171C50.6211 16.6199 51.4511 18.5015 53.739 18.5015C54.3669 18.5015 55.1011 18.1401 55.3352 17.7467V18.4058C55.3352 19.5858 55.2395 20.1492 53.7071 20.1492C52.9728 20.1492 52.1109 19.8834 51.3553 19.4901L50.8552 20.9039C51.8449 21.3929 52.7813 21.6905 53.8135 21.6905C54.6116 21.6905 55.7396 21.563 56.4632 20.9358C57.2294 20.3086 57.2613 19.1925 57.2613 18.1082L57.272 10.4863L55.7503 10.7308C55.7503 10.7096 55.6332 11.1454 55.6013 11.3155ZM55.3352 15.3018C55.3352 15.6632 55.3033 16.0247 55.165 16.3223C54.9947 16.6837 54.6648 16.9176 54.2392 16.9176C53.0154 16.9176 52.8771 16.0672 52.8771 14.4514C52.8771 13.0057 53.1431 12.1553 54.2072 12.1553C54.7393 12.1553 55.133 12.421 55.3352 12.6443V15.3018Z" fill="#0F0E0E"/>
<path d="M48.0884 29.9289L48.099 27.3032C48.099 26.4954 48.0671 26.2509 47.9607 25.9213C47.6627 25.0709 46.7689 24.5713 45.4387 24.5713C44.7044 24.5713 44.0447 24.6989 43.2785 25.0284C42.8528 25.2091 42.4378 25.443 42.0441 25.6768L42.7996 27.0162C43.7361 26.4316 44.4703 26.1977 45.1301 26.1977C45.8963 26.1977 46.0772 26.5379 46.0772 27.3883V27.6859H45.5983C43.1082 27.6859 41.8525 28.5363 41.8525 30.3435C41.8525 31.7467 42.6187 32.6183 44.0872 32.7565H44.9173C45.3855 32.7034 45.7792 32.5546 46.0985 32.3526C46.2687 32.2569 46.4283 32.0868 46.5986 31.9167C46.7689 32.2463 47.0881 32.5546 47.4499 32.7565L47.6947 32.8735L47.8011 32.7565L48.8546 31.6297C48.1629 31.1089 48.0884 30.7262 48.0884 29.9289ZM44.9492 31.3108C44.4171 31.3108 44.0553 30.8856 44.0553 30.2903C44.0553 29.3655 44.5235 29.0253 45.9495 29.0253H46.0665V30.8325C45.7579 31.162 45.3429 31.3108 44.9492 31.3108Z" fill="#0F0E0E"/>
<path d="M10.4498 7.87109H2.1814V16.067L6.34218 20.2021L14.6212 12.0062L10.4498 7.87109Z" fill="#0F0E0E"/>
<path d="M2.1814 24.3373V32.5438H10.4498L14.6212 28.4087L6.34218 20.2021L2.1814 24.3373Z" fill="#0F0E0E"/>
<path d="M18.7819 32.5438H27.0077V24.2735L22.9001 20.2021L14.6211 28.4087L18.7819 32.5438Z" fill="#0F0E0E"/>
<path d="M14.6211 12.0062L22.9001 20.2021L27.0077 16.1307V7.87109H18.7819L14.6211 12.0062Z" fill="#0F0E0E"/>
<path d="M70.7758 17.0128C70.414 17.1085 70.2438 17.1829 70.0522 17.1829C69.3499 17.1829 69.1583 16.9172 69.1583 15.9285V12.0485H70.446L70.978 10.6347H69.1583V8.49805L67.1365 8.82758V10.6347H66.3384V12.0485H67.1365V16.2581C67.1365 16.9809 67.1365 17.1085 67.2642 17.4487C67.4983 18.1396 68.3283 18.5967 69.3499 18.5967C69.882 18.5967 70.446 18.4692 71.0419 18.2353L70.7758 17.0128Z" fill="#0F0E0E"/>
<path d="M33.1479 12.8992L36.3509 18.395H39.0538L35.3825 12.7397L38.692 7.87109H36.17L33.1479 12.6759V7.87109H30.9983V18.395H33.1479V12.8992Z" fill="#0F0E0E"/>
<path d="M43.0762 12.2086C43.6402 12.2086 43.7998 12.5701 43.7998 13.4524V18.3848H45.7898V12.7402C45.7898 12.2405 45.7579 11.9216 45.6621 11.624C45.428 10.9649 44.6299 10.5078 43.7679 10.5078C43.2997 10.5078 42.7783 10.6035 42.3739 10.8373C42.044 11.0074 41.7141 11.2626 41.48 11.5602L41.3523 10.5291L39.6284 10.8055V18.3954H41.6822V13.8244C41.6822 13.261 41.8525 12.8677 42.1185 12.6126C42.4165 12.3468 42.7463 12.2086 43.0762 12.2086Z" fill="#0F0E0E"/>
<path d="M47.3435 18.3951H49.4079V10.4756L47.3435 10.7945V18.3951Z" fill="#0F0E0E"/>
<path d="M63.0503 10.4435C62.1564 10.4435 61.3902 10.7731 60.8262 11.3896C60.8262 11.294 60.8582 10.8262 60.8582 10.603V7.67969L58.7725 8.01985V18.4055H60.8582V14.1216C60.8582 13.3987 60.9539 12.9842 61.1881 12.7078C61.4967 12.3463 62.0181 12.1444 62.4863 12.1444C63.0822 12.1444 63.2844 12.4739 63.2844 13.1968V18.3949H65.2744V12.9735C65.2744 12.2188 65.2424 11.9849 65.0722 11.5597C64.8381 10.8687 64.0506 10.4435 63.0503 10.4435Z" fill="#0F0E0E"/>
<path d="M48.3864 7.24414C47.6841 7.24414 47.1201 7.80754 47.1201 8.50913C47.1201 9.21073 47.6841 9.77413 48.3864 9.77413C49.0888 9.77413 49.6528 9.21073 49.6528 8.50913C49.6528 7.81817 49.0888 7.24414 48.3864 7.24414Z" fill="#0F0E0E"/>
<path d="M30.9771 32.4908H33.0628V27.8241H35.787V26.1233H33.0628V23.6571H36.4467L36.7128 21.9775H30.9771V32.4908Z" fill="#0F0E0E"/>
<path d="M38.873 25.7509L38.6708 24.6985L37.0107 24.9643V32.4904H39.0645V27.6856C39.0645 27.2923 39.1284 26.9627 39.3625 26.7076C39.5647 26.495 39.8946 26.3462 40.267 26.3462C40.5011 26.3462 40.7672 26.41 40.9693 26.5056L41.4908 24.6985C41.1609 24.571 41.0226 24.5391 40.7246 24.5391C39.9584 24.5391 39.2029 25.23 38.873 25.7509Z" fill="#0F0E0E"/>
<path d="M57.5166 22.1791V32.4904H59.5704V28.0895V21.8496L57.5166 22.1791Z" fill="#0F0E0E"/>
<path d="M64.0825 24.7305H61.5924L59.5706 28.0896L62.2416 32.4905H64.6465L61.5605 27.9939L64.0825 24.7305Z" fill="#0F0E0E"/>
<path d="M53.9413 24.6035C53.473 24.6035 52.941 24.6992 52.5472 24.9331C52.2174 25.1031 51.8875 25.3583 51.6534 25.6559L51.5257 24.6248L49.8018 24.9012V32.4911H51.8555V27.9201C51.8555 27.3567 52.0258 26.9634 52.2918 26.6977C52.5898 26.4319 52.9197 26.3043 53.2496 26.3043C53.8136 26.3043 53.9838 26.6658 53.9838 27.5587V32.4911H55.9738V26.8359C55.9738 26.3469 55.9418 26.0173 55.8461 25.7197C55.6013 25.0712 54.8032 24.6035 53.9413 24.6035Z" fill="#0F0E0E"/>
</svg>
