<svg width="102" height="40" viewBox="0 0 102 40" fill="none" xmlns="http://www.w3.org/2000/svg">
<g clip-path="url(#clip0_2457_385)">
<path d="M7.88855 6.10412C9.90137 5.29416 12.1294 5.03486 14.2768 5.34204C17.2657 5.75764 20.0687 7.32291 22.0032 9.62993C23.0277 10.8415 23.8161 12.2514 24.306 13.7593C24.9132 15.6159 25.0577 17.6171 24.746 19.5442C24.4691 21.2689 23.8152 22.9331 22.8387 24.3837C22.092 25.4968 21.1594 26.4847 20.0964 27.3028C20.0048 27.3737 19.9242 27.4568 19.8435 27.5395C18.5648 28.8346 16.8823 29.7137 15.0956 30.0607C14.8668 30.1072 14.6361 30.1438 14.4055 30.1772C14.4812 30.4988 14.5908 30.8114 14.7163 31.1173C14.633 31.1995 14.5496 31.2826 14.4662 31.3657C14.241 31.2401 13.9252 31.3106 13.8078 31.5482C13.656 31.8102 13.8409 32.177 14.1404 32.2159C14.3828 32.2615 14.594 32.1012 14.7458 31.9317C14.8428 32.3279 14.8115 32.7589 14.6121 33.1194C14.2202 33.8507 13.4979 34.3526 12.7371 34.6485C12.6279 34.6837 12.5123 34.7587 12.3968 34.7041C11.5961 34.4262 10.8307 33.9284 10.3957 33.1858C10.1692 32.8122 10.1198 32.355 10.2263 31.9349C10.3781 32.1233 10.6223 32.2751 10.872 32.2064C11.1357 32.1432 11.292 31.8238 11.1751 31.5785C11.0763 31.3359 10.7623 31.232 10.5335 31.3553C10.4433 31.274 10.3577 31.1877 10.272 31.1015C10.4669 30.7676 10.649 30.4248 10.7795 30.0602C10.3069 29.968 9.84563 29.828 9.38344 29.6988C8.77624 29.9184 8.10017 29.9563 7.48119 29.7621C6.53324 29.4815 5.76971 28.6865 5.51414 27.736C3.60736 26.4445 2.07578 24.6104 1.15093 22.5053C0.33439 20.6618 -0.012256 18.6163 0.142715 16.6075C0.303124 14.4549 1.0526 12.3507 2.28467 10.5763C3.66038 8.5819 5.63422 7.00399 7.88855 6.10412ZM11.0047 5.65645C8.80025 5.92659 6.6805 6.83052 4.95588 8.22413C3.01195 9.78217 1.57053 11.9546 0.908055 14.3528C0.31989 16.462 0.329406 18.732 0.934337 20.8362C1.65889 23.3908 3.27114 25.6806 5.42669 27.2382C5.37276 26.6419 5.51777 26.0361 5.82001 25.5207C5.67364 25.3825 5.53317 25.2384 5.39995 25.0875C5.43212 25.064 5.4643 25.0405 5.49692 25.0175C5.63467 25.1372 5.78421 25.2429 5.9351 25.3468C6.24368 24.9095 6.66963 24.558 7.15946 24.3408C6.1884 23.5823 5.38092 22.6156 4.81451 21.5224C4.06457 20.1062 3.72925 18.4749 3.85885 16.8785C3.98573 15.1877 4.63733 13.542 5.69585 12.2152C6.81282 10.8035 8.37975 9.75055 10.1152 9.25906C11.549 8.85024 13.0882 8.81636 14.5378 9.16419C16.0078 9.51474 17.3794 10.2592 18.4746 11.2977C19.4044 12.175 20.1381 13.2592 20.5998 14.4504C21.0906 15.7085 21.2727 17.0831 21.1354 18.4253C20.9764 20.028 20.3465 21.5779 19.3501 22.8451C18.2861 24.2057 16.8076 25.2415 15.1572 25.7646C14.9764 25.8134 14.8169 25.9236 14.7082 26.0754C14.4282 26.4617 14.3189 26.9437 14.2736 27.4108C16.0857 27.8182 18.0206 27.741 19.7688 27.1004C21.6592 25.696 23.112 23.7128 23.88 21.4907C24.5217 19.6418 24.6966 17.6352 24.3957 15.7026C24.1315 13.9973 23.4863 12.353 22.5252 10.9187C21.1771 8.89857 19.2037 7.29852 16.9394 6.40589C15.0671 5.66097 13.004 5.40664 11.0047 5.65645ZM11.0949 9.39322C9.47769 9.66517 7.95199 10.4385 6.76932 11.5697C5.51913 12.7551 4.65228 14.3375 4.34053 16.0301C4.07228 17.4504 4.18646 18.9407 4.67403 20.3022C5.20556 21.8097 6.18659 23.1536 7.45762 24.1271C7.5043 24.1583 7.55324 24.2152 7.61622 24.1867C8.10334 24.0638 8.62127 24.0643 9.10567 24.2003C9.88641 24.4112 10.5697 24.9596 10.9354 25.6802C12.6125 26.0063 14.3901 25.7976 15.9434 25.0875C17.4152 24.4212 18.6808 23.3149 19.5404 21.9506C20.5568 20.3546 20.9891 18.4031 20.7498 16.5284C20.584 15.1737 20.0696 13.8641 19.2735 12.7546C18.3976 11.5286 17.1836 10.5447 15.7966 9.94976C14.3285 9.31281 12.6718 9.11992 11.0949 9.39322ZM6.23689 25.5433C6.39095 25.6354 6.54592 25.7262 6.70271 25.8143C7.08832 25.289 7.73041 24.9569 8.38655 24.975C8.70328 24.9741 9.01141 25.0635 9.2987 25.1918C9.67571 25.3477 10.0631 25.4778 10.4587 25.5772C9.99516 24.8815 9.17499 24.4361 8.33534 24.4419C7.50928 24.4338 6.7018 24.8652 6.23689 25.5433ZM7.02534 25.9887C7.48753 26.2191 7.95562 26.4382 8.43231 26.6378C8.57006 26.6988 8.735 26.7517 8.80297 26.8998C8.91988 27.1171 8.78757 27.418 8.54423 27.4727C8.36479 27.5278 8.20348 27.4085 8.05848 27.3218C7.62075 27.0381 7.20614 26.7205 6.80693 26.3853C6.61978 26.8167 6.64561 27.3317 6.85541 27.7505C7.05207 28.1439 7.41186 28.4272 7.79475 28.6291C8.89768 29.2299 10.1143 29.6107 11.3518 29.8136C12.3292 29.9771 13.3284 29.9626 14.3094 29.8411C15.3403 29.7106 16.3553 29.4251 17.2847 28.9575C17.9821 28.611 18.6246 28.1611 19.2055 27.6448C17.635 28.0766 15.9634 28.1173 14.3702 27.7839C12.7008 27.4451 11.133 26.7246 9.6893 25.8374C9.3567 25.654 9.04449 25.4055 8.65842 25.3477C8.04896 25.2316 7.39328 25.4918 7.02534 25.9887ZM6.08826 25.7759C5.83179 26.2611 5.72575 26.8262 5.8123 27.3697C5.92876 28.1999 6.49019 28.948 7.2519 29.3004C7.74128 29.5357 8.30181 29.5904 8.83424 29.5005C8.27507 29.2611 7.70821 29.0244 7.20478 28.6783C6.8681 28.4371 6.58761 28.1073 6.44261 27.717C6.24912 27.2111 6.2822 26.6315 6.50877 26.1418C6.3692 26.019 6.231 25.8947 6.08826 25.7759ZM10.5122 25.9282C10.8253 26.1003 11.1452 26.2588 11.466 26.4156C11.5385 26.3158 11.6205 26.2236 11.7121 26.1414C11.3074 26.0998 10.91 26.0104 10.5122 25.9282ZM12.5513 26.1771C12.2531 26.1748 11.9554 26.3158 11.785 26.5629C12.4702 26.8768 13.1825 27.1325 13.912 27.324C13.9596 26.852 14.0865 26.3781 14.3525 25.9792C13.7607 26.1052 13.1562 26.1726 12.5513 26.1771ZM10.7718 30.9393C10.9816 30.9632 11.1951 31.0314 11.345 31.1864C11.6704 31.4963 11.6609 32.0777 11.3233 32.3745C11.1167 32.5624 10.8185 32.6071 10.5507 32.5597C10.6368 32.9662 10.891 33.3145 11.1928 33.5919C11.5571 33.9257 11.9948 34.1809 12.4643 34.3373C12.7579 34.2803 13.0289 34.12 13.2872 33.97C13.8015 33.6434 14.2913 33.1767 14.4182 32.5588C14.1291 32.6166 13.8065 32.5434 13.6025 32.323C13.2917 32.0036 13.3153 31.424 13.6619 31.1394C13.8264 30.9957 14.0489 30.9424 14.2632 30.942C14.1789 30.7048 14.0951 30.4668 14.0398 30.221C13.0756 30.3181 12.0986 30.3019 11.1429 30.1311C11.0428 30.4103 10.9177 30.6804 10.7718 30.9393Z" fill="#0F0E0E"/>
<path d="M10.1366 6.38486C10.2585 6.34556 10.3822 6.31168 10.5063 6.27734C10.4126 6.75664 10.3047 7.23367 10.2186 7.71387C10.2807 7.99259 10.3758 8.26273 10.4502 8.53874C10.3423 8.57036 10.234 8.60244 10.1271 8.63677C10.0437 8.39328 9.98434 8.14212 9.90957 7.89547C9.89009 7.80918 9.81985 7.75046 9.76276 7.68857C9.5004 7.4225 9.24664 7.14829 8.98337 6.88312C8.94576 6.84156 8.9 6.80271 8.88232 6.7476C8.99153 6.71192 9.10255 6.683 9.2122 6.64867C9.46369 6.90074 9.70657 7.16139 9.95534 7.41617C10.0142 7.0724 10.0827 6.72998 10.1366 6.38486Z" fill="#0F0E0E"/>
<path d="M15.2945 6.56945C15.7101 6.48362 16.1732 6.7 16.3472 7.09075C16.5669 7.58766 16.4002 8.21467 15.9905 8.56387C15.7241 8.7947 15.3249 8.83943 15.0041 8.7012C14.6615 8.56342 14.4359 8.21061 14.4254 7.84651C14.3919 7.30081 14.7213 6.67922 15.2945 6.56945ZM15.3358 6.87798C15.0195 6.97737 14.8428 7.30442 14.7884 7.61206C14.7358 7.88807 14.8042 8.21919 15.0553 8.37911C15.2941 8.54444 15.6425 8.48346 15.8233 8.2603C16.0499 7.98655 16.1668 7.59399 16.0517 7.24931C15.9593 6.96291 15.6244 6.78628 15.3358 6.87798Z" fill="#0F0E0E"/>
<path d="M12.3908 6.97051C12.5965 6.88603 12.8385 7.09293 12.7823 7.30886C12.7483 7.52343 12.4542 7.62372 12.2965 7.47239C12.1261 7.33732 12.1823 7.0351 12.3908 6.97051Z" fill="#0F0E0E"/>
<path d="M6.64844 7.76155C7.11607 7.51987 7.58325 7.27774 8.05043 7.03516C8.09529 7.12325 8.14015 7.21133 8.18455 7.29942C8.0024 7.39203 7.82205 7.48689 7.64125 7.58176C7.92989 8.12926 8.21129 8.68084 8.50401 9.22608C8.40296 9.28345 8.30056 9.33811 8.1977 9.39142C7.9086 8.8412 7.62086 8.29008 7.33312 7.73896C7.15096 7.83473 6.9688 7.9305 6.78528 8.02356C6.73952 7.93637 6.69375 7.84874 6.64844 7.76155Z" fill="#0F0E0E"/>
<path d="M16.7468 9.32855C17.1107 8.70696 17.4791 8.08853 17.8457 7.46875C18.1905 7.67022 18.5349 7.87351 18.8797 8.07543C18.8294 8.16036 18.7787 8.24529 18.7284 8.33021C18.4832 8.18385 18.2363 8.0411 17.9898 7.89655C17.8887 8.0664 17.7904 8.23851 17.6853 8.40656C17.915 8.54931 18.1533 8.67805 18.3822 8.82306C18.3319 8.90347 18.2834 8.98478 18.2354 9.06609C18.0029 8.93148 17.7714 8.7955 17.5403 8.65863C17.374 8.93915 17.2081 9.22013 17.0423 9.50066C16.9444 9.44194 16.8461 9.38412 16.7468 9.32855Z" fill="#0F0E0E"/>
<path d="M5.46167 8.59684C5.55547 8.52998 5.64745 8.46086 5.7408 8.39355C6.17082 8.96952 6.61444 9.53464 7.04899 10.1074C6.95746 10.177 6.86638 10.2466 6.77575 10.3171C6.33667 9.74425 5.89305 9.17506 5.46167 8.59684Z" fill="#0F0E0E"/>
<path d="M61.1525 8.91842C61.8131 8.78335 62.549 8.93558 63.0524 9.39861C62.9568 9.52781 62.8499 9.64797 62.7516 9.77536C62.4625 9.56621 62.124 9.41397 61.7646 9.39003C61.4538 9.36654 61.1144 9.41578 60.8697 9.62222C60.6332 9.81737 60.5516 10.1661 60.659 10.4498C60.7233 10.6093 60.8543 10.7317 60.9957 10.8247C61.4687 11.1283 62.0293 11.2693 62.4878 11.5977C62.7896 11.8118 63.0307 12.1325 63.086 12.5043C63.1494 12.9303 63.0411 13.392 62.752 13.719C62.5427 13.9612 62.2463 14.1152 61.9364 14.1848C61.2213 14.346 60.441 14.1518 59.876 13.6888C59.9707 13.5505 60.0663 13.4123 60.1569 13.2709C60.5194 13.4941 60.9195 13.6856 61.3514 13.7136C61.6359 13.7235 61.9423 13.6788 62.1734 13.4995C62.4316 13.2994 62.5241 12.9434 62.472 12.6312C62.4235 12.371 62.2246 12.1705 62.0111 12.0291C61.4995 11.693 60.8729 11.5511 60.4089 11.1405C59.9381 10.7321 59.9036 9.96283 60.2598 9.47089C60.4696 9.17817 60.8035 8.99295 61.1525 8.91842Z" fill="#0F0E0E"/>
<path d="M80.7513 8.89144C81.2959 8.82459 81.8719 8.93842 82.3227 9.25825C82.9517 9.69192 83.2911 10.4445 83.355 11.1885C83.432 12.0292 83.2381 12.9444 82.6363 13.5678C81.9657 14.2784 80.8075 14.4365 79.9538 13.9753C79.2822 13.6225 78.8599 12.9137 78.7362 12.1814C78.5984 11.357 78.724 10.4517 79.2306 9.76736C79.5867 9.28039 80.1518 8.9592 80.7513 8.89144ZM80.5854 9.45386C80.2764 9.53426 79.9986 9.72038 79.802 9.97019C79.5246 10.3153 79.3914 10.754 79.347 11.1885C79.2994 11.671 79.3425 12.1715 79.5328 12.6214C79.6678 12.9453 79.8858 13.2403 80.1785 13.4386C80.7458 13.8348 81.5918 13.7838 82.0944 13.3027C82.4188 12.9977 82.5928 12.5663 82.6716 12.1358C82.7573 11.6294 82.7509 11.0977 82.5865 10.6076C82.4655 10.2476 82.2471 9.91237 81.9344 9.69011C81.5511 9.4123 81.0399 9.3364 80.5854 9.45386Z" fill="#0F0E0E"/>
<path d="M31.3998 8.96801C31.6051 8.96755 31.8108 8.97026 32.0165 8.96484C32.0288 10.143 32.0143 11.3211 32.0238 12.4992C32.0251 12.8033 32.0936 13.129 32.3169 13.3512C32.6283 13.6634 33.1063 13.7451 33.5295 13.6841C33.8784 13.6358 34.2138 13.4289 34.3678 13.1059C34.4825 12.8611 34.4906 12.5842 34.4992 12.3185C34.5083 11.2009 34.4961 10.0833 34.506 8.96575C34.709 8.96936 34.9116 8.96801 35.115 8.96801C35.115 9.73912 35.1146 10.5098 35.115 11.2809C35.1069 11.7932 35.1372 12.3086 35.0702 12.8182C35.0253 13.1701 34.8853 13.5211 34.6184 13.7641C34.2355 14.1273 33.6854 14.2533 33.1697 14.2339C32.616 14.219 32.0365 14.0013 31.7016 13.5432C31.4524 13.2062 31.4066 12.7725 31.4025 12.3664C31.3966 11.2335 31.4012 10.101 31.3998 8.96801Z" fill="#0F0E0E"/>
<path d="M37.1102 8.96801C37.3223 8.96801 37.5348 8.96756 37.7473 8.96892C38.5829 10.3829 39.4076 11.804 40.2522 13.2125C40.2558 11.7977 40.2427 10.3829 40.2404 8.96801C40.4312 8.96847 40.6229 8.96576 40.8146 8.97163C40.8069 10.6946 40.8177 12.4179 40.8087 14.1409C40.5921 14.1363 40.3755 14.1418 40.1593 14.1359C39.3328 12.7238 38.5018 11.3143 37.6657 9.90808C37.668 11.3189 37.6802 12.7301 37.678 14.1409C37.4886 14.1377 37.2992 14.1386 37.1102 14.1391C37.1097 12.4152 37.1097 10.6918 37.1102 8.96801Z" fill="#0F0E0E"/>
<path d="M42.9797 14.1428C42.9729 12.4176 42.9729 10.692 42.9801 8.9668C43.1863 8.97131 43.3934 8.96906 43.6 8.96951C43.6004 10.6929 43.6004 12.4167 43.6 14.1401C43.3934 14.1401 43.1863 14.1378 42.9797 14.1428Z" fill="#0F0E0E"/>
<path d="M44.9783 8.9677C45.1949 8.9677 45.4119 8.9677 45.6285 8.9677C46.1342 10.4896 46.6367 12.0124 47.1438 13.5339C47.6608 12.0106 48.181 10.4882 48.703 8.9668C48.9033 8.96815 49.1045 8.96725 49.3052 8.9677C48.698 10.6911 48.089 12.414 47.4832 14.1378C47.2444 14.1392 47.0051 14.1387 46.7663 14.1383C46.1714 12.4145 45.5737 10.6915 44.9783 8.9677Z" fill="#0F0E0E"/>
<path d="M50.7168 8.97041C51.6561 8.96634 52.5954 8.97402 53.5352 8.9668C53.5416 9.13981 53.5402 9.31328 53.5371 9.48629C52.8016 9.48313 52.0657 9.48629 51.3303 9.48449C51.3289 10.0537 51.3299 10.6224 51.3299 11.1912C52.0222 11.1934 52.7146 11.1862 53.4075 11.1948C53.4025 11.3587 53.4025 11.5227 53.4079 11.6867C52.7155 11.7039 52.0227 11.6899 51.3299 11.6939C51.328 12.3313 51.3326 12.9687 51.328 13.6057C52.0857 13.6134 52.8433 13.6061 53.6014 13.6093C53.6005 13.7864 53.6005 13.963 53.6009 14.1396C52.6394 14.1392 51.6779 14.1419 50.7163 14.1383C50.719 12.4158 50.7181 10.6933 50.7168 8.97041Z" fill="#0F0E0E"/>
<path d="M55.25 14.1359C55.2604 12.4125 55.2446 10.6887 55.2582 8.96484C55.825 8.97569 56.3923 8.95807 56.9592 8.98065C57.3149 8.99918 57.6919 9.08139 57.9575 9.33572C58.3866 9.72286 58.5008 10.3774 58.315 10.9109C58.1587 11.3496 57.72 11.6342 57.271 11.7006C57.5814 11.7435 57.7948 12.001 57.918 12.2693C58.2117 12.8873 58.4813 13.5156 58.7622 14.1395C58.5474 14.1399 58.3331 14.1368 58.1188 14.1422C57.8705 13.6159 57.652 13.0757 57.3987 12.5512C57.275 12.3041 57.1183 12.0303 56.8328 11.9495C56.5179 11.8664 56.1875 11.8971 55.8658 11.8898C55.8654 12.6397 55.8654 13.3896 55.8654 14.139C55.6601 14.1386 55.4548 14.1418 55.25 14.1359ZM55.8658 9.46537C55.8654 10.1086 55.8654 10.7524 55.8658 11.3956C56.2596 11.3898 56.661 11.4223 57.0471 11.3243C57.2927 11.2628 57.5238 11.1142 57.6511 10.8911C57.8365 10.5753 57.8251 10.1547 57.6267 9.84754C57.459 9.60089 57.155 9.48886 56.8663 9.47395C56.5333 9.45543 56.1989 9.46989 55.8658 9.46537Z" fill="#0F0E0E"/>
<path d="M64.8245 8.96875C65.0325 8.96875 65.2404 8.96875 65.4489 8.96875C65.4493 10.6921 65.4493 12.4155 65.4489 14.1393C65.2404 14.1393 65.0325 14.1393 64.8245 14.1389C64.8245 12.4155 64.8245 10.6921 64.8245 8.96875Z" fill="#0F0E0E"/>
<path d="M66.8447 8.96931C68.08 8.96841 69.3147 8.96886 70.55 8.96886C70.5495 9.14052 70.5495 9.31264 70.55 9.4843C70.0375 9.48384 69.525 9.4852 69.013 9.48384C69.0111 11.0356 69.0125 12.5877 69.0121 14.1394C68.8059 14.1399 68.5997 14.1363 68.3944 14.1435C68.3786 12.59 68.3967 11.0356 68.3854 9.48204C67.872 9.48746 67.3581 9.48294 66.8447 9.4843C66.8447 9.31264 66.8447 9.14097 66.8447 8.96931Z" fill="#0F0E0E"/>
<path d="M71.2754 8.96858C71.5142 8.96903 71.753 8.96496 71.9922 8.97174C72.4082 9.77899 72.8396 10.5781 73.2588 11.384C73.6929 10.589 74.0893 9.77312 74.5071 8.96858C74.7323 8.96767 74.958 8.96812 75.1841 8.96858C74.6462 9.99041 74.1079 11.0118 73.5701 12.0332C73.5329 12.0937 73.5352 12.1651 73.5356 12.2333C73.5379 12.8684 73.5361 13.5036 73.537 14.1387C73.3303 14.1387 73.1237 14.1414 72.918 14.136C72.9189 13.4561 72.9289 12.7749 72.913 12.0955C72.3797 11.0475 71.8155 10.0139 71.2754 8.96858Z" fill="#0F0E0E"/>
<path d="M85.0791 8.96875C85.9981 8.96875 86.9166 8.96875 87.8355 8.96875C87.8351 9.14041 87.8351 9.31252 87.8355 9.48418C87.1232 9.48463 86.4109 9.48418 85.6985 9.48418C85.6985 10.0529 85.6994 10.6212 85.6981 11.1899C86.3678 11.1936 87.038 11.1854 87.7082 11.1936C87.7036 11.3589 87.7036 11.5242 87.7077 11.6891C87.038 11.699 86.3678 11.6905 85.6985 11.6936C85.699 12.509 85.6985 13.3239 85.6985 14.1393C85.4919 14.1393 85.2853 14.1393 85.0791 14.1393C85.0791 12.4155 85.0791 10.6921 85.0791 8.96875Z" fill="#0F0E0E"/>
<path d="M3.84151 10.2896C3.89906 9.89886 4.25658 9.59304 4.64174 9.54199C4.6644 9.63821 4.68298 9.73534 4.70065 9.83246C4.45958 9.87357 4.20991 10.033 4.16097 10.2865C4.12789 10.4455 4.29147 10.5927 4.44735 10.5516C4.73781 10.4906 4.99383 10.2937 5.3006 10.3041C5.66809 10.3068 5.96579 10.6971 5.87018 11.0512C5.76913 11.4325 5.403 11.6986 5.02237 11.7582C4.99926 11.662 4.97525 11.5658 4.95032 11.47C5.18187 11.4059 5.44786 11.3011 5.53305 11.0544C5.61008 10.8751 5.45693 10.6456 5.25709 10.6673C4.95486 10.6926 4.7011 10.9058 4.39433 10.9135C4.07306 10.927 3.78895 10.6063 3.84151 10.2896Z" fill="#0F0E0E"/>
<path d="M19.4461 9.74831C19.6319 9.64712 19.8847 9.80387 19.8747 10.0157C19.8843 10.2398 19.5997 10.3938 19.4166 10.2633C19.2245 10.1517 19.2426 9.8373 19.4461 9.74831Z" fill="#0F0E0E"/>
<path d="M21.0907 11.0357C21.3041 10.9784 21.5384 10.977 21.745 11.0624C22.1918 11.2386 22.4673 11.782 22.3042 12.241C22.1483 12.6832 21.7128 12.9909 21.2592 13.0681C20.9112 13.1305 20.5369 12.9791 20.3348 12.6891C20.1559 12.451 20.092 12.1262 20.1898 11.8425C20.324 11.441 20.691 11.15 21.0907 11.0357ZM21.2275 11.3533C20.8936 11.4541 20.5605 11.6953 20.4794 12.0508C20.3965 12.3986 20.7028 12.7795 21.0667 12.7492C21.4215 12.7198 21.7731 12.5188 21.9539 12.2089C22.1107 11.9437 22.0132 11.576 21.7568 11.4102C21.6018 11.3077 21.4015 11.305 21.2275 11.3533Z" fill="#0F0E0E"/>
<path d="M9.76396 11.1671C9.78888 11.1644 9.83918 11.159 9.86456 11.1562C10.107 11.4833 10.3471 11.8135 10.5696 12.1546C10.4563 12.1817 10.3417 12.2034 10.228 12.2287C10.3548 12.4545 10.5139 12.6605 10.6571 12.8765C10.8723 12.7206 11.0753 12.5471 11.2679 12.3646C11.1805 12.319 11.0898 12.2797 11.0051 12.2296C11.0146 12.1677 11.0762 12.1406 11.1202 12.1058C11.3332 11.9594 11.5452 11.8113 11.7559 11.6613C11.8144 11.6188 11.8783 11.5791 11.9539 11.5786C11.7904 12.1252 11.6005 12.6632 11.4265 13.2067C10.8864 13.0233 10.3073 13.0088 9.74221 13.0039C9.23153 13.0197 8.7059 13.0337 8.22014 13.2085C8.03753 12.6687 7.85945 12.1275 7.68726 11.584C7.82818 11.5755 7.9247 11.6943 8.03753 11.7584C8.25186 11.9179 8.50153 12.0353 8.68958 12.2278C8.5985 12.2702 8.50425 12.3077 8.42178 12.366C8.58854 12.5548 8.79063 12.7093 8.97687 12.8787C9.12867 12.666 9.29316 12.4582 9.41006 12.2233C9.29769 12.2025 9.18531 12.184 9.07475 12.155C9.28862 11.8153 9.53694 11.4982 9.76396 11.1671Z" fill="#0F0E0E"/>
<path d="M14.6466 11.8346C14.8074 11.6074 14.9701 11.3815 15.1296 11.1534C15.2814 11.1498 15.3267 11.3183 15.411 11.4136C15.5741 11.6675 15.7848 11.8924 15.9167 12.1648C15.8066 12.1842 15.6969 12.2023 15.5877 12.2244C15.7046 12.4557 15.8723 12.6559 16.0105 12.8745C16.2307 12.7254 16.4283 12.5443 16.6245 12.3658C16.5348 12.3171 16.4423 12.2732 16.3499 12.2303C16.4414 12.1052 16.5864 12.0383 16.7074 11.9466C16.8819 11.8301 17.045 11.6964 17.2262 11.5902C17.2485 11.5898 17.292 11.5879 17.3137 11.587C17.1397 12.1278 16.9584 12.6662 16.7831 13.2061C16.2538 13.0263 15.6865 13.0105 15.1328 13.0032C14.609 13.0154 14.0729 13.034 13.5731 13.2065C13.3964 12.6662 13.2165 12.1273 13.0425 11.5866C13.202 11.5776 13.3121 11.7199 13.4421 11.7912C13.6393 11.9408 13.8785 12.0419 14.0412 12.2312C13.9483 12.271 13.8563 12.3134 13.767 12.3613C13.9474 12.5298 14.1241 12.7042 14.3158 12.8596L14.3493 12.8569C14.502 12.6626 14.628 12.4499 14.7716 12.2493C14.6719 12.1897 14.5532 12.1865 14.4418 12.1666C14.4834 12.041 14.5723 11.9412 14.6466 11.8346Z" fill="#0F0E0E"/>
<path d="M2.58068 11.9569C2.68083 11.8002 2.83716 11.6606 3.032 11.6529C3.38862 11.6118 3.77876 11.9407 3.67953 12.3156C3.84855 12.232 4.03932 12.2704 4.21921 12.2826C4.42584 12.3016 4.63292 12.316 4.83955 12.3373C4.77384 12.4394 4.71448 12.5451 4.65875 12.653C4.37327 12.6386 4.08871 12.5844 3.80233 12.5957C3.62017 12.607 3.55084 12.7985 3.47335 12.9331C3.73889 13.0736 4.00125 13.2195 4.26543 13.3632C4.21105 13.463 4.15577 13.5624 4.09822 13.6604C3.4661 13.3139 2.83172 12.9711 2.19507 12.6323C2.32059 12.4055 2.44067 12.1751 2.58068 11.9569ZM2.89788 12.0423C2.76783 12.1579 2.70076 12.3242 2.60923 12.4683C2.81223 12.5794 3.01614 12.6887 3.22051 12.7976C3.30026 12.6458 3.40402 12.4949 3.41127 12.3179C3.41626 12.0771 3.09544 11.8896 2.89788 12.0423Z" fill="#0F0E0E"/>
<path d="M23.0906 13.1924C23.1359 13.3134 23.1767 13.4359 23.2184 13.5578C23.0344 13.79 22.8164 13.9947 22.6447 14.2363C22.9334 14.2969 23.2215 14.3606 23.5084 14.4319C23.5419 14.5476 23.58 14.6623 23.6176 14.7771C23.2211 14.679 22.8237 14.5842 22.4263 14.4907C22.1467 14.8272 21.8603 15.1583 21.5857 15.4994C21.5359 15.3783 21.4947 15.2541 21.4607 15.1285C21.6773 14.8878 21.8862 14.6407 22.0946 14.3931C21.7833 14.314 21.4657 14.2589 21.1562 14.174C21.0868 14.0719 21.0714 13.9377 21.0261 13.823C21.458 13.9192 21.8853 14.0376 22.3189 14.1252C22.5672 13.8072 22.8396 13.5081 23.0906 13.1924Z" fill="#0F0E0E"/>
<path d="M8.91893 13.4178C9.45272 13.3455 9.99466 13.3437 10.5303 13.3938C10.7668 13.4232 11.0106 13.448 11.229 13.5492C11.297 13.5695 11.3581 13.6658 11.2748 13.7105C11.1316 13.8054 10.9548 13.8293 10.789 13.8614C10.2466 13.9427 9.69333 13.9467 9.1473 13.8984C8.90805 13.8727 8.66381 13.8456 8.44042 13.7525C8.3797 13.7322 8.34481 13.6766 8.30493 13.6314C8.47078 13.4783 8.70641 13.4557 8.91893 13.4178Z" fill="#0F0E0E"/>
<path d="M13.7534 13.5589C13.9859 13.4432 14.2514 13.4211 14.5056 13.3899C15.092 13.3416 15.6883 13.3429 16.2688 13.4504C16.4206 13.4897 16.6127 13.5087 16.6934 13.6641C16.5103 13.8136 16.2674 13.8412 16.0422 13.8769C15.4395 13.9505 14.826 13.9501 14.2247 13.8638C14.0493 13.8281 13.8549 13.8096 13.709 13.6962C13.6479 13.6542 13.7045 13.5796 13.7534 13.5589Z" fill="#0F0E0E"/>
<path d="M1.35986 15.0664C1.47858 14.668 1.59957 14.27 1.71512 13.8711C1.81118 13.895 1.90725 13.9203 2.00286 13.9465C1.9154 14.2356 1.82704 14.5243 1.73913 14.813C1.93308 14.8622 2.1252 14.9169 2.31824 14.9702C2.39618 14.7077 2.45599 14.4398 2.55024 14.1832C2.63951 14.2113 2.72877 14.2384 2.8185 14.2655C2.74463 14.5261 2.67032 14.7863 2.59691 15.047C2.81532 15.1034 3.03283 15.1658 3.25078 15.225C3.32917 14.9413 3.413 14.6594 3.49004 14.3752C3.58746 14.3996 3.68443 14.4258 3.78185 14.4516C3.67582 14.8487 3.56344 15.2435 3.45469 15.6396C2.75732 15.4449 2.05769 15.2593 1.35986 15.0664Z" fill="#0F0E0E"/>
<path d="M8.42969 14.792C9.24578 14.792 10.0619 14.7924 10.878 14.792C11.2056 14.7979 11.5577 14.7915 11.8481 14.9655C12.1812 15.162 12.323 15.5631 12.3248 15.9322C12.3298 17.4238 12.3244 18.9154 12.3275 20.4066C12.3284 20.5006 12.3239 20.5946 12.3108 20.6876C12.2183 20.5503 12.2487 20.3628 12.1349 20.2341C11.9406 19.9734 11.583 19.9495 11.2844 19.9404C10.3333 19.9377 9.38217 19.9382 8.4315 19.94C8.42788 18.2243 8.43105 16.5081 8.42969 14.792ZM8.74416 15.6092C8.76682 15.634 8.81168 15.6842 8.83388 15.709C8.84838 15.8748 8.8443 16.0424 8.83796 16.2091C8.84793 16.2787 8.76682 16.3017 8.73057 16.3451C8.93855 16.3383 9.16965 16.3821 9.35589 16.2656C9.57158 16.1382 9.58155 15.7623 9.34094 15.6557C9.15243 15.5794 8.94218 15.6164 8.74416 15.6092ZM9.84391 15.6268C9.56796 15.7397 9.54077 16.1856 9.81265 16.3193C10.0573 16.4589 10.4022 16.2665 10.3836 15.9787C10.4112 15.7 10.0872 15.5035 9.84391 15.6268ZM10.452 15.6101C10.4887 15.6535 10.5753 15.6756 10.5621 15.7474C10.563 15.8987 10.5531 16.0501 10.5358 16.2005C10.5386 16.2692 10.472 16.3021 10.4321 16.3469C10.5372 16.3478 10.6437 16.3509 10.7475 16.3288C10.7189 16.3125 10.6614 16.28 10.6324 16.2638C10.6156 16.1206 10.6269 15.976 10.6319 15.8323C10.7225 15.9918 10.7678 16.1716 10.8481 16.336C10.8616 16.3342 10.8888 16.3311 10.9024 16.3297C10.9867 16.1508 11.0356 15.9575 11.1285 15.7827C11.1326 15.9435 11.1317 16.1047 11.1294 16.266C11.1023 16.2854 11.0483 16.3234 11.0211 16.3424C11.153 16.3469 11.2844 16.3464 11.4163 16.346C11.3927 16.3207 11.3451 16.2701 11.3211 16.2448C11.3048 16.0663 11.2998 15.8861 11.3053 15.7068C11.3302 15.6819 11.38 15.6327 11.4054 15.6078C11.3075 15.6083 11.2101 15.6087 11.1127 15.6083C11.0551 15.7574 10.9971 15.9064 10.9409 16.056C10.8707 15.9078 10.8046 15.7578 10.7393 15.6078C10.6432 15.6083 10.5476 15.6087 10.452 15.6101ZM11.462 15.6101C11.6057 15.6815 11.5595 15.8468 11.5676 15.9755C11.5595 16.1056 11.6057 16.2692 11.4643 16.3455C11.5966 16.346 11.7289 16.346 11.8613 16.3469C11.8377 16.3216 11.7906 16.2714 11.7666 16.2466C11.753 16.0672 11.7548 15.8861 11.7656 15.7068C11.7897 15.6851 11.8381 15.6413 11.8626 15.6191C11.7294 15.6047 11.5953 15.6056 11.462 15.6101ZM9.20318 16.9698C9.24351 17.015 9.32598 17.0376 9.32961 17.1067C9.34547 17.2784 9.33459 17.4509 9.32553 17.6226C9.30015 17.6429 9.2485 17.6831 9.22312 17.7034C9.33006 17.7102 9.43745 17.7098 9.54394 17.6949C9.31556 17.6334 9.43247 17.357 9.40437 17.1885C9.55436 17.3533 9.68305 17.5363 9.82307 17.7098C9.84663 17.7143 9.8933 17.7233 9.91641 17.7274C9.94405 17.4979 9.89874 17.2625 9.94949 17.0367L10.0505 17.0055C9.94949 16.9472 9.83032 16.9725 9.71975 16.9716C9.92276 17.0421 9.84165 17.2734 9.85841 17.4356C9.72383 17.2856 9.60239 17.1248 9.47506 16.9694C9.38444 16.9698 9.29381 16.9694 9.20318 16.9698ZM10.0741 17.0204C10.2653 17.2052 10.2495 17.5313 10.4207 17.7224L10.471 17.7107C10.6056 17.4694 10.6206 17.1501 10.8476 16.9698C10.7447 16.9698 10.6414 16.9698 10.5386 16.9694C10.563 16.991 10.6115 17.0344 10.636 17.0561C10.5997 17.1903 10.5503 17.3204 10.5023 17.4509C10.4316 17.3204 10.3845 17.179 10.3342 17.0403C10.3609 17.0236 10.4153 16.9901 10.442 16.973C10.3097 16.9698 10.1774 16.9698 10.0456 16.9648C10.0524 16.9784 10.0669 17.0064 10.0741 17.0204ZM10.9808 16.9956C10.8716 17.0579 10.839 17.2296 10.9346 17.3177C11.0112 17.3823 11.1082 17.4166 11.1847 17.4812C11.2373 17.5503 11.197 17.6664 11.1036 17.6678C10.9831 17.6574 10.9432 17.5236 10.853 17.4627C10.8612 17.5377 10.8748 17.6117 10.8888 17.6858C11.0008 17.7165 11.1258 17.7473 11.2359 17.6921C11.3578 17.642 11.4099 17.4794 11.3415 17.3683C11.269 17.2625 11.1217 17.2472 11.0434 17.1496C10.9976 17.066 11.1077 16.9757 11.1847 17.0231C11.2423 17.0701 11.2849 17.1324 11.3347 17.1871C11.3288 17.1171 11.3225 17.0471 11.3157 16.977C11.2051 16.9594 11.0819 16.9305 10.9808 16.9956ZM9.11074 18.339C9.13839 18.3567 9.19367 18.3919 9.22131 18.4095C9.22856 18.6015 9.22765 18.7939 9.22267 18.9859C9.18506 19.0103 9.1479 19.0347 9.11074 19.0591C9.24714 19.0708 9.38353 19.0695 9.52038 19.069C9.48911 19.0324 9.44606 19.0044 9.42522 18.9606C9.41117 18.7786 9.42114 18.5961 9.42295 18.414C9.45875 18.3865 9.49455 18.3589 9.53035 18.3305C9.39033 18.3291 9.25031 18.3286 9.11074 18.339ZM9.56297 18.3354C9.59831 18.3585 9.63321 18.3815 9.669 18.4045C9.67671 18.597 9.68803 18.7912 9.66719 18.9828C9.64046 19.0017 9.58699 19.0392 9.56025 19.0577C9.75374 19.0781 9.94813 19.0641 10.1421 19.0718C10.1597 18.9972 10.1747 18.9227 10.1874 18.8472C10.1085 18.9511 10.0188 19.0437 9.87518 19.0044C9.8711 18.8228 9.86249 18.6403 9.87473 18.4587C9.87291 18.3937 9.94451 18.3679 9.98121 18.3268C9.84165 18.3309 9.70208 18.3295 9.56297 18.3354ZM10.2005 18.3341C10.2363 18.3603 10.2721 18.3869 10.3079 18.4136C10.3102 18.597 10.3197 18.7808 10.3066 18.9642C10.2803 18.9895 10.2273 19.041 10.201 19.0668C10.3949 19.069 10.5889 19.069 10.7833 19.0681C10.7968 18.995 10.8095 18.9213 10.8204 18.8481C10.7425 18.9507 10.6541 19.0415 10.5123 19.009C10.5064 18.8265 10.4982 18.6435 10.51 18.4615C10.5068 18.3955 10.5784 18.3684 10.6156 18.3268C10.4769 18.3309 10.3387 18.3305 10.2005 18.3341ZM10.6867 18.3282C10.7325 18.3725 10.7919 18.4091 10.8154 18.4723C10.8988 18.6688 10.969 18.8712 11.0461 19.0708C11.0674 19.074 11.1109 19.0812 11.1322 19.0844C11.2183 18.8798 11.288 18.6679 11.3823 18.4669C11.409 18.4063 11.4688 18.3716 11.5155 18.3282C11.4081 18.3309 11.3007 18.3304 11.1933 18.33C11.2214 18.3503 11.2767 18.3901 11.3048 18.4104C11.2572 18.5491 11.2106 18.6882 11.1634 18.8269C11.1036 18.6896 11.0515 18.5491 10.9971 18.4095C11.0225 18.3896 11.0733 18.3494 11.0986 18.3295C10.9609 18.3305 10.8236 18.3318 10.6867 18.3282Z" fill="#0F0E0E"/>
<path d="M13.0597 15.0391C13.3202 14.82 13.6787 14.8006 14.004 14.7934C14.869 14.7906 15.7341 14.7929 16.5991 14.7924C16.6009 16.5068 16.5959 18.2211 16.6014 19.935C15.7653 19.9441 14.9293 19.9364 14.0928 19.9391C13.7716 19.9436 13.4349 19.9156 13.1299 20.038C12.9382 20.1135 12.7964 20.2946 12.7692 20.4983C12.7452 20.5535 12.7688 20.6447 12.6994 20.6705C12.6881 20.6126 12.6827 20.5548 12.6831 20.4961C12.6859 18.9904 12.6827 17.4848 12.6845 15.9792C12.6827 15.6358 12.7815 15.2627 13.0597 15.0391ZM13.1712 15.6092C13.2097 15.639 13.2455 15.6715 13.2785 15.7072C13.2849 15.8712 13.2713 16.0352 13.2541 16.1983C13.2573 16.2665 13.192 16.3008 13.1526 16.3464C13.2495 16.346 13.3461 16.346 13.443 16.3469L13.4453 16.3144C13.4213 16.3012 13.3733 16.2741 13.3492 16.261C13.3343 16.1178 13.3447 15.9737 13.3515 15.831C13.4394 15.9909 13.4856 16.1684 13.5645 16.3324C13.5781 16.3324 13.6057 16.3315 13.6193 16.3311C13.7031 16.1517 13.7543 15.9584 13.8463 15.7827C13.8499 15.9439 13.8499 16.1052 13.8468 16.2665C13.82 16.2854 13.767 16.3238 13.7403 16.3428C13.8722 16.3464 14.004 16.3464 14.1359 16.346C14.1119 16.3207 14.0634 16.2701 14.0394 16.2448C14.0226 16.065 14.019 15.8838 14.0221 15.7036C14.0489 15.6801 14.1023 15.6327 14.1291 15.6092C14.0294 15.6087 13.9302 15.6087 13.8305 15.6083C13.7743 15.7533 13.719 15.8988 13.6637 16.0442C13.5812 15.9069 13.5223 15.7578 13.4612 15.6105C13.3642 15.6083 13.2677 15.6087 13.1712 15.6092ZM14.1866 15.6087C14.2093 15.6349 14.255 15.6873 14.2777 15.714C14.289 15.8902 14.2895 16.0686 14.2772 16.2452C14.2528 16.2701 14.2034 16.3202 14.1789 16.3455C14.314 16.346 14.449 16.3455 14.5845 16.3464C14.5596 16.3216 14.5097 16.2723 14.4848 16.2475C14.4712 16.0691 14.4721 15.8888 14.4839 15.7104C14.5088 15.6846 14.5582 15.634 14.5827 15.6083C14.4508 15.6083 14.3185 15.6083 14.1866 15.6087ZM14.6021 15.6114C14.6461 15.6417 14.6869 15.676 14.724 15.7144C14.744 15.8617 14.7363 16.0112 14.7317 16.1594C14.7435 16.2425 14.6955 16.3013 14.6216 16.3342C14.7322 16.3532 14.8455 16.3523 14.9547 16.3261C14.9207 16.3139 14.8527 16.2895 14.8183 16.2769C14.8015 16.1291 14.7997 15.9801 14.8065 15.8314C14.9112 15.9453 15.0036 16.07 15.0983 16.1928C15.159 16.2674 15.2121 16.369 15.3235 16.3663C15.3285 16.1594 15.3158 15.9521 15.3321 15.7456C15.3263 15.6751 15.4051 15.6521 15.4441 15.6087C15.3344 15.6083 15.2252 15.6087 15.1165 15.611C15.1586 15.6399 15.1998 15.6702 15.2406 15.7018C15.2615 15.8256 15.2537 15.9525 15.2574 16.0776C15.1242 15.9236 15.0009 15.761 14.869 15.6056C14.7798 15.6078 14.691 15.6092 14.6021 15.6114ZM15.3901 16.346C15.493 16.3464 15.5959 16.3451 15.6987 16.3419C15.6715 16.3247 15.6172 16.2895 15.5895 16.2719C15.6054 16.2226 15.6212 16.1734 15.6366 16.1242C15.6983 16.1228 15.7599 16.1219 15.8215 16.1206C15.8392 16.1725 15.856 16.2245 15.8736 16.2769C15.8501 16.2931 15.8025 16.3256 15.7785 16.3419C15.9112 16.3473 16.0445 16.3464 16.1777 16.3451C16.1324 16.2999 16.0721 16.2651 16.0508 16.2019C15.9665 16.0027 15.9103 15.793 15.8229 15.5952L15.769 15.5997C15.6095 15.8296 15.6158 16.1603 15.3901 16.346ZM13.6805 16.945C13.6782 17.029 13.6764 17.113 13.6759 17.197C13.7267 17.1062 13.7874 17.0209 13.9016 17.0168C13.907 17.2196 13.907 17.4229 13.9002 17.6257C13.8703 17.6443 13.8105 17.6818 13.7806 17.7007C13.9306 17.7107 14.081 17.7107 14.231 17.6998C14.1993 17.6813 14.1354 17.6452 14.1032 17.6271C14.0965 17.4234 14.096 17.2196 14.1028 17.0164C14.2147 17.0186 14.2736 17.1094 14.3303 17.1921C14.3307 17.1126 14.3275 17.0331 14.3212 16.9536C14.1087 16.9712 13.8912 16.9892 13.6805 16.945ZM14.3905 16.9725C14.4268 17.001 14.4635 17.0295 14.5006 17.0575C14.497 17.2418 14.512 17.4265 14.4934 17.6104C14.4698 17.6343 14.4227 17.6818 14.3991 17.7057C14.5337 17.708 14.6683 17.7089 14.8033 17.7021C14.7771 17.6827 14.7245 17.6429 14.6982 17.623C14.6955 17.4496 14.6882 17.2756 14.6982 17.1026C14.6905 17.0358 14.7657 17.0118 14.8006 16.9689C14.6638 16.9694 14.5269 16.9685 14.3905 16.9725ZM15.0662 17.0051C14.8668 17.1184 14.816 17.417 14.9619 17.5923C15.0942 17.7554 15.3648 17.7667 15.5188 17.628C15.6801 17.4794 15.6842 17.1889 15.5179 17.0426C15.3965 16.9346 15.2053 16.9287 15.0662 17.0051ZM13.4956 18.3291C13.5541 18.3761 13.6324 18.4208 13.6075 18.5098C13.5867 18.6977 13.6352 18.9191 13.4974 19.0713C13.5957 19.069 13.6968 19.0781 13.7924 19.0487C13.5794 19.0013 13.6954 18.733 13.6827 18.5821C13.7851 18.7379 13.8191 18.9263 13.9116 19.0876C14.0353 18.906 14.0797 18.686 14.1712 18.4886C14.1458 18.6792 14.26 18.9313 14.081 19.069C14.2102 19.069 14.3389 19.0681 14.4676 19.0663C14.444 19.046 14.3964 19.0063 14.3729 18.9864C14.3411 18.7975 14.3543 18.6038 14.3466 18.4127C14.3855 18.3851 14.4245 18.3576 14.4639 18.3305C14.3606 18.3305 14.2578 18.3309 14.1549 18.3332C14.1001 18.4813 14.0425 18.6286 13.9877 18.7763C13.9125 18.63 13.8513 18.4773 13.7811 18.3286C13.6859 18.3305 13.5908 18.3305 13.4956 18.3291ZM14.5034 18.33C14.5292 18.3517 14.5808 18.3941 14.6071 18.4158C14.6094 18.5988 14.6194 18.7822 14.6049 18.9651C14.5759 18.99 14.5183 19.0397 14.4893 19.0645C14.6923 19.0704 14.8958 19.0699 15.0992 19.0668C15.1115 18.9918 15.1228 18.9168 15.1323 18.8423C15.0843 18.892 15.0426 18.9471 14.9946 18.9963C14.9334 19.0044 14.8718 19.0085 14.8106 19.0081C14.8056 18.9073 14.8038 18.8061 14.8038 18.7049C14.9026 18.7027 14.9701 18.7641 15.0208 18.8405C15.0236 18.7411 15.0249 18.6417 15.0231 18.5428C14.9669 18.6105 14.8976 18.6584 14.8061 18.6616C14.8038 18.5712 14.8033 18.4813 14.8024 18.3919C14.9284 18.3625 15.01 18.442 15.073 18.5392C15.072 18.4705 15.0711 18.4023 15.0707 18.3345C14.8813 18.3286 14.6923 18.3309 14.5034 18.33ZM15.1282 19.0677C15.2247 19.0686 15.3213 19.0686 15.4178 19.0672C15.387 19.0397 15.3562 19.013 15.3249 18.9868C15.3403 18.9389 15.3553 18.892 15.3711 18.8445C15.4336 18.845 15.4971 18.8454 15.5601 18.8459C15.5972 18.9245 15.6022 19.0044 15.541 19.0727C15.6647 19.069 15.7889 19.0677 15.9131 19.0627C15.8609 19.0184 15.7971 18.9801 15.7776 18.91C15.6951 18.7063 15.6321 18.4949 15.5451 18.293C15.3249 18.499 15.3666 18.8703 15.1282 19.0677Z" fill="#0F0E0E"/>
<path d="M6.62198 15.132C6.7398 14.9617 7.02935 14.9562 7.13855 15.1378C7.21151 15.2896 7.39774 15.286 7.53595 15.3379C7.5355 15.2973 7.53504 15.2164 7.53459 15.1758C7.65331 15.1753 7.77249 15.1753 7.89166 15.1753C7.89302 16.9881 7.89121 18.8014 7.89256 20.6147C9.20755 20.6133 10.5225 20.6147 11.8375 20.6142C11.8978 20.7674 11.9757 20.9368 12.1452 20.9937C12.3759 21.0719 12.6369 21.0719 12.868 20.9955C13.0401 20.9408 13.1217 20.7696 13.182 20.6142C14.501 20.612 15.8206 20.6183 17.1396 20.6111C17.1351 18.7992 17.1387 16.9872 17.1378 15.1753C17.2565 15.1753 17.3753 15.1753 17.494 15.1749C17.4953 17.1065 17.4944 19.0381 17.4944 20.9698C16.1301 20.9707 14.7657 20.968 13.4013 20.9707C13.1806 21.3596 12.6862 21.4563 12.2753 21.3894C12.0047 21.3592 11.7578 21.2024 11.6169 20.9702C10.257 20.9698 8.89761 20.9675 7.53776 20.9716C7.53459 20.8424 7.53504 20.7136 7.53504 20.5844C7.42584 20.6287 7.31709 20.6748 7.21105 20.7258C7.1603 20.8839 7.01304 21.0222 6.83586 20.9892C6.61156 20.9657 6.47834 20.6825 6.60748 20.4968C6.70173 20.3369 6.91471 20.3134 7.07013 20.3933C7.22601 20.3287 7.38188 20.2628 7.53595 20.1937C7.53504 20.0523 7.53504 19.9113 7.53504 19.7708C7.42946 19.8025 7.32434 19.8345 7.22012 19.8693C7.15532 20.013 7.00896 20.1349 6.84175 20.0965C6.60794 20.0654 6.49012 19.7537 6.646 19.5766C6.7552 19.4293 6.96999 19.4271 7.11363 19.5251C7.25456 19.4849 7.39412 19.442 7.53459 19.4C7.5355 19.2541 7.53504 19.1081 7.5355 18.9622C7.4281 18.9799 7.32071 18.9975 7.21377 19.0164C7.13402 19.1375 6.99854 19.2432 6.84402 19.2053C6.60975 19.1714 6.49692 18.8579 6.65461 18.6826C6.77605 18.5245 7.01258 18.5399 7.1526 18.6636C7.28038 18.6438 7.40771 18.6216 7.53504 18.5995C7.53504 18.4509 7.53504 18.3018 7.5355 18.1532C7.42312 18.1568 7.3112 18.1609 7.19927 18.1663C7.0801 18.3303 6.82045 18.3813 6.67681 18.2205C6.49964 18.052 6.60386 17.7195 6.84538 17.6811C6.98086 17.6427 7.09279 17.7367 7.19791 17.8053C7.31029 17.8103 7.42267 17.8004 7.53504 17.7968C7.53504 17.6355 7.53504 17.4747 7.53595 17.3138C7.41632 17.3071 7.2967 17.3017 7.17707 17.2985C7.08735 17.383 6.96953 17.458 6.83994 17.4236C6.62969 17.3884 6.50961 17.1232 6.62561 16.9439C6.71895 16.7695 6.98177 16.7275 7.12043 16.8725C7.22555 16.989 7.39639 16.9366 7.53504 16.9561C7.53504 16.8075 7.53504 16.6593 7.5355 16.5116C7.40409 16.4872 7.27359 16.4623 7.14173 16.4424C7.04385 16.5125 6.9206 16.5703 6.79961 16.5238C6.6025 16.4677 6.50915 16.2084 6.62697 16.0413C6.73028 15.8678 7.0076 15.838 7.13447 16.0006C7.22102 16.138 7.39684 16.1149 7.5355 16.1479C7.53504 16.002 7.53504 15.8561 7.53459 15.7097C7.39321 15.6704 7.25546 15.6185 7.11227 15.5869C7.00216 15.6108 6.89114 15.6826 6.77605 15.6316C6.57395 15.5697 6.48876 15.2964 6.62198 15.132Z" fill="#0F0E0E"/>
<path d="M9.03734 15.6634C9.33505 15.6354 9.38308 16.0542 9.22902 16.2317C9.18824 16.2841 9.05864 16.3243 9.04369 16.2322C9.02375 16.0434 9.0378 15.8527 9.03734 15.6634Z" fill="#0F0E0E"/>
<path d="M9.93451 15.6678C10.0492 15.6028 10.1407 15.7451 10.1547 15.8431C10.1756 15.9863 10.1996 16.1697 10.0904 16.2835C9.97121 16.3599 9.86609 16.2162 9.84977 16.1105C9.82394 15.9651 9.80582 15.7713 9.93451 15.6678Z" fill="#0F0E0E"/>
<path d="M15.6516 16.052C15.6779 15.982 15.7051 15.9129 15.7332 15.8438C15.7558 15.9156 15.7789 15.9879 15.8021 16.0601C15.7518 16.0574 15.7015 16.0547 15.6516 16.052Z" fill="#0F0E0E"/>
<path d="M21.6892 16.2516C22.4097 16.1956 23.1293 16.1292 23.8506 16.0781C23.8742 16.4748 23.9141 16.8705 23.944 17.2666C23.8452 17.2748 23.7469 17.2825 23.6486 17.2906C23.6254 17.0073 23.6014 16.7241 23.5801 16.4404C23.3826 16.4544 23.1855 16.4748 22.9874 16.4824C22.9974 16.7521 23.0287 17.0204 23.0477 17.2892C22.9507 17.2965 22.8542 17.3046 22.7581 17.3114C22.7382 17.0444 22.7151 16.7779 22.6933 16.5113C22.3675 16.5407 22.0417 16.5655 21.7155 16.5895C21.7069 16.4766 21.6983 16.3641 21.6892 16.2516Z" fill="#0F0E0E"/>
<path d="M1.14501 16.1172C1.85824 16.4013 2.56875 16.6927 3.28107 16.9796C3.277 17.0984 3.27201 17.2172 3.26657 17.3364C2.53613 17.556 1.80477 17.7728 1.07296 17.9883C1.07342 17.8699 1.07387 17.7516 1.07251 17.6337C1.65886 17.4652 2.24793 17.3066 2.83429 17.1386C2.2792 16.8924 1.701 16.699 1.13685 16.4727C1.13957 16.3543 1.14229 16.2355 1.14501 16.1172Z" fill="#0F0E0E"/>
<path d="M15.194 17.0267C15.2624 16.9878 15.3413 17.0357 15.373 17.099C15.4387 17.2259 15.4373 17.3772 15.4151 17.5155C15.4061 17.5914 15.3544 17.6718 15.2683 17.6691C15.1414 17.6392 15.1038 17.4951 15.0925 17.3831C15.0848 17.2607 15.0848 17.1071 15.194 17.0267Z" fill="#0F0E0E"/>
<path d="M22.3132 18.2163C22.8411 18.0794 23.5004 18.2741 23.7496 18.7873C23.9381 19.1876 23.8148 19.7174 23.4464 19.9727C22.958 20.2988 22.2384 20.1954 21.8337 19.7798C21.5809 19.511 21.5324 19.0913 21.6724 18.7575C21.7843 18.4892 22.0322 18.2868 22.3132 18.2163ZM22.4554 18.5398C22.1595 18.5782 21.8972 18.8302 21.9017 19.137C21.8786 19.4243 22.1237 19.6479 22.3766 19.7342C22.6593 19.8376 22.9996 19.8597 23.2638 19.6958C23.5466 19.525 23.6277 19.0963 23.4125 18.8415C23.185 18.57 22.793 18.4914 22.4554 18.5398Z" fill="#0F0E0E"/>
<path d="M15.386 18.7818C15.4109 18.7073 15.4372 18.6337 15.4635 18.5596C15.487 18.6318 15.5111 18.7041 15.536 18.7764C15.4984 18.7778 15.4236 18.7805 15.386 18.7818Z" fill="#0F0E0E"/>
<path d="M35.5075 18.7223C37.0994 18.5569 38.7701 19.0181 39.9854 20.0729C40.6827 20.6697 41.2233 21.4471 41.5401 22.3077C42.1364 23.9344 41.9583 25.8321 41.0466 27.3098C40.4072 28.356 39.4013 29.1664 38.2503 29.5919C36.4292 30.2677 34.2696 30.0283 32.6818 28.8945C31.5979 28.131 30.8149 26.9588 30.5271 25.6673C30.1488 23.9909 30.5253 22.1365 31.6165 20.7921C32.5581 19.609 34.0045 18.865 35.5075 18.7223ZM35.6412 19.2666C35.0394 19.3389 34.4567 19.5711 33.9791 19.9442C33.3796 20.4077 32.9514 21.0609 32.6736 21.7579C32.293 22.7174 32.1679 23.7636 32.2219 24.79C32.2672 25.6528 32.4407 26.5201 32.8227 27.3007C33.1444 27.9616 33.6343 28.5543 34.2727 28.9315C34.9697 29.3512 35.8138 29.4876 36.6163 29.3923C37.2417 29.3196 37.8489 29.0752 38.3378 28.6776C38.9287 28.2038 39.3474 27.5456 39.6174 26.8454C40.0003 25.8489 40.1122 24.7638 40.037 23.7045C39.974 22.8362 39.7765 21.9653 39.3628 21.1937C39.0161 20.5473 38.4977 19.9785 37.8407 19.6379C37.1714 19.2833 36.3889 19.1771 35.6412 19.2666Z" fill="#0F0E0E"/>
<path d="M70.5825 18.7267C72.2084 18.5464 73.9217 19.023 75.1506 20.1162C75.8094 20.694 76.3228 21.4335 76.6346 22.2511C77.2839 23.9609 77.0673 25.9825 76.0392 27.5012C75.2983 28.6052 74.1401 29.4134 72.8554 29.7554C71.0778 30.2369 69.0659 29.895 67.6073 28.7534C66.4686 27.8779 65.7127 26.5345 65.5455 25.1115C65.3384 23.4776 65.8296 21.7447 66.9597 20.5277C67.8873 19.505 69.2105 18.8676 70.5825 18.7267ZM70.7602 19.266C70.2536 19.3275 69.7592 19.4982 69.3314 19.7769C68.707 20.1767 68.2389 20.7839 67.9254 21.4479C67.5207 22.3062 67.3449 23.2585 67.3281 24.2026C67.3155 25.1833 67.45 26.1803 67.8406 27.0865C68.1402 27.7831 68.611 28.4218 69.2494 28.8438C69.8566 29.2512 70.5961 29.4364 71.3243 29.4202C72.0244 29.412 72.7286 29.2056 73.2991 28.7945C73.9443 28.336 74.4052 27.6584 74.6997 26.9325C75.1057 25.9269 75.228 24.8238 75.1569 23.7468C75.0975 22.8632 74.8995 21.9755 74.4772 21.1909C74.1351 20.5535 73.6267 19.9929 72.9823 19.6509C72.3081 19.2873 71.516 19.1757 70.7602 19.266Z" fill="#0F0E0E"/>
<path d="M1.20068 19.0455C1.91527 18.9447 2.6285 18.8341 3.34264 18.7324C3.35895 18.8454 3.37526 18.9583 3.39158 19.0712C2.67835 19.1783 1.96512 19.2853 1.25098 19.387C1.23422 19.2732 1.21745 19.1589 1.20068 19.0455Z" fill="#0F0E0E"/>
<path d="M42.4035 18.8703C44.0063 18.8708 45.609 18.8699 47.2122 18.8708C47.2113 19.0031 47.2113 19.1355 47.2108 19.2678C46.866 19.3388 46.5212 19.4106 46.1759 19.4784C46.0889 19.5005 45.9856 19.514 45.9312 19.5935C45.9099 19.6965 45.9842 19.7828 46.0354 19.8637C46.8655 21.0441 47.6907 22.2276 48.5217 23.4076C48.553 23.4907 48.6287 23.4455 48.6568 23.3877C49.5091 22.2001 50.3637 21.0143 51.2142 19.8257C51.2863 19.7458 51.3248 19.599 51.1898 19.5606C50.8264 19.435 50.4448 19.365 50.0728 19.2674C50.0719 19.135 50.0719 19.0027 50.0719 18.8703C51.3602 18.8699 52.6484 18.8703 53.9371 18.8703C53.9367 19.0031 53.9367 19.1359 53.9358 19.2692C53.5035 19.3885 53.0567 19.4594 52.6353 19.6148C52.2673 19.7508 52.0371 20.0796 51.8069 20.3755C50.8531 21.5731 49.8988 22.7702 48.9463 23.9686C50.0819 25.4575 51.2147 26.9483 52.3493 28.4381C52.5324 28.7033 52.7558 28.9585 53.068 29.0714C53.44 29.207 53.8311 29.2806 54.2108 29.3913C54.2108 29.5223 54.2108 29.6537 54.2131 29.7852C52.6099 29.7906 51.0063 29.7856 49.4035 29.7874C49.4031 29.656 49.4031 29.5245 49.4022 29.3935C49.8059 29.2991 50.2205 29.2467 50.6184 29.1297C50.7602 29.0836 50.6859 28.9237 50.6215 28.8424C49.834 27.7325 49.0428 26.6253 48.2535 25.5167C48.1194 25.3342 47.9979 25.1422 47.8511 24.9697C47.0024 26.1013 46.1863 27.2586 45.3503 28.4002C45.2261 28.584 45.0739 28.7503 44.9724 28.9477C44.9293 29.0651 45.0802 29.1089 45.1631 29.1374C45.4998 29.2287 45.841 29.3014 46.1781 29.3917C46.1786 29.5241 46.1786 29.6569 46.1732 29.7893C44.8867 29.7856 43.6007 29.787 42.3147 29.7884C42.3129 29.656 42.3129 29.5236 42.3138 29.3913C42.6777 29.3023 43.042 29.2151 43.4036 29.1171C43.6927 29.0385 43.9619 28.8799 44.1526 28.6468C45.266 27.2627 46.3698 25.87 47.4854 24.4877C46.4641 23.1221 45.4296 21.7664 44.4028 20.4044C44.1748 20.1103 43.9727 19.7634 43.6116 19.6148C43.2228 19.458 42.8068 19.3817 42.4045 19.2674C42.4031 19.135 42.4031 19.0027 42.4035 18.8703Z" fill="#0F0E0E"/>
<path d="M55.7012 18.8713C58.4603 18.869 61.2194 18.8708 63.979 18.8704C63.9785 19.7811 63.9785 20.6913 63.979 21.6016C63.8258 21.602 63.6736 21.602 63.5213 21.6016C63.3478 21.0482 63.1729 20.4953 62.9989 19.9424C62.9445 19.7739 62.8733 19.5959 62.7238 19.4893C62.5897 19.3939 62.4179 19.3867 62.2593 19.3876C61.1378 19.3912 60.0159 19.384 58.8944 19.3912C58.8989 20.9565 58.8948 22.5213 58.8962 24.0861C59.6856 24.0866 60.4749 24.0861 61.2647 24.0866C61.4931 24.0821 61.745 24.1146 61.9485 23.9854C62.1252 23.8734 62.2063 23.6692 62.2625 23.4772C62.3477 23.1854 62.432 22.8931 62.5185 22.6013C62.669 22.6022 62.8199 22.6022 62.9712 22.599C62.9803 23.8124 62.9721 25.0257 62.9753 26.2391C62.823 26.2396 62.6712 26.2396 62.5199 26.2409C62.4247 25.8782 62.3368 25.5136 62.2439 25.1504C62.2036 24.9919 62.1343 24.8301 61.9979 24.7308C61.8542 24.6201 61.6657 24.6025 61.4908 24.6016C60.6258 24.6011 59.7612 24.6016 58.8962 24.6016C58.8971 25.9419 58.8944 27.2822 58.8976 28.6225C58.8822 28.8294 59.0108 29.0372 59.2197 29.0842C59.6774 29.1953 60.1405 29.2852 60.5995 29.3913C60.5995 29.5214 60.6 29.652 60.6045 29.783C58.9705 29.7934 57.3361 29.7843 55.7021 29.7875C55.7016 29.6552 55.7016 29.5232 55.7016 29.3918C56.046 29.3105 56.3895 29.2265 56.7334 29.1438C56.8925 29.1004 57.0687 29.0625 57.1852 28.936C57.2812 28.8285 57.2835 28.6749 57.2853 28.5385C57.2835 25.7083 57.2867 22.8777 57.284 20.0472C57.3021 19.8398 57.1711 19.6424 56.9695 19.5864C56.5526 19.459 56.1235 19.3745 55.7016 19.2656C55.7016 19.1342 55.7016 19.0027 55.7012 18.8713Z" fill="#0F0E0E"/>
<path d="M78.2496 18.8701C79.672 18.8701 81.0948 18.8701 82.5172 18.8701C83.3823 18.8706 84.2668 18.857 85.1042 19.1059C85.9325 19.3454 86.6298 19.9805 86.9543 20.7756C87.2565 21.4889 87.2352 22.3372 86.8614 23.0202C86.4812 23.7344 85.7811 24.2304 85.0303 24.4997C84.8422 24.5742 84.6397 24.6049 84.4562 24.6899C84.8454 24.8972 85.11 25.2577 85.3824 25.592C86.1817 26.6066 86.952 27.6433 87.7346 28.671C87.914 28.9082 88.1764 29.0821 88.4696 29.1426C88.847 29.2226 89.2231 29.3084 89.6001 29.3906C89.5997 29.5216 89.6001 29.6531 89.6028 29.7846C88.7047 29.7886 87.8066 29.7895 86.909 29.7841C86.6149 29.7832 86.411 29.5433 86.2524 29.3269C85.4019 28.1425 84.5527 26.9576 83.7035 25.7722C83.448 25.4303 83.1652 25.0454 82.7216 24.9496C82.302 24.8665 81.8711 24.9216 81.4469 24.904C81.4438 26.1463 81.4442 27.3885 81.4465 28.6308C81.4329 28.84 81.5697 29.0437 81.78 29.0871C82.2345 29.1959 82.6935 29.2867 83.1493 29.3911C83.1489 29.5235 83.1489 29.6558 83.148 29.7882C81.5163 29.7868 79.8845 29.7859 78.2528 29.7886C78.2487 29.6558 78.2487 29.5235 78.2501 29.3911C78.6729 29.2827 79.1038 29.2023 79.5207 29.0713C79.7146 29.0162 79.8437 28.8282 79.8306 28.6281C79.8338 25.7673 79.8324 22.9055 79.8315 20.0447C79.8465 19.84 79.7214 19.6422 79.5198 19.5866C79.1024 19.4597 78.6729 19.3743 78.2501 19.2663C78.2492 19.134 78.2492 19.002 78.2496 18.8701ZM81.4451 19.3883C81.4474 21.0565 81.4401 22.7248 81.4487 24.3931C81.925 24.3854 82.4012 24.3949 82.8775 24.3881C83.3501 24.3804 83.8345 24.3068 84.2559 24.0823C84.5826 23.9102 84.8567 23.64 85.0271 23.3121C85.2659 22.8653 85.338 22.3503 85.3402 21.8493C85.343 21.3064 85.1943 20.7521 84.8635 20.3152C84.4825 19.8052 83.8739 19.4881 83.2436 19.4235C82.6459 19.3612 82.0442 19.3982 81.4451 19.3883Z" fill="#0F0E0E"/>
<path d="M90.4823 18.8706C91.8739 18.8706 93.2659 18.8706 94.658 18.8706C95.6893 18.872 96.7338 18.8435 97.7479 19.0667C98.5821 19.2375 99.3787 19.6061 100.027 20.1604C101.131 21.0891 101.747 22.5049 101.846 23.926C101.938 25.3038 101.652 26.7625 100.789 27.872C100.285 28.522 99.5939 29.0176 98.8318 29.3243C98.0229 29.6383 97.1493 29.7354 96.2879 29.7751C94.3539 29.804 92.419 29.7778 90.4851 29.7896C90.481 29.6563 90.4805 29.524 90.4828 29.3912C90.8933 29.2895 91.3084 29.201 91.7158 29.0853C91.9238 29.0356 92.0805 28.8459 92.0633 28.6286C92.0674 25.7967 92.0633 22.9647 92.0656 20.1323C92.0647 19.9887 92.0633 19.8247 91.9577 19.714C91.8467 19.6011 91.6868 19.5623 91.5395 19.523C91.1865 19.4394 90.8353 19.3504 90.4823 19.2677C90.4814 19.1354 90.4814 19.003 90.4823 18.8706ZM93.6783 19.3883C93.6783 22.5139 93.6787 25.6395 93.6783 28.765C93.6828 28.8983 93.6742 29.0492 93.7608 29.1612C93.8591 29.2732 94.0227 29.2669 94.1604 29.2728C94.7042 29.2705 95.2479 29.2769 95.7922 29.2683C96.4863 29.2484 97.196 29.182 97.843 28.9114C98.5114 28.6354 99.0393 28.0888 99.3832 27.4631C99.7929 26.7137 99.9641 25.8586 100.019 25.0134C100.069 24.1438 100.019 23.2611 99.7969 22.4163C99.6048 21.6922 99.2677 20.9916 98.7407 20.4504C98.2903 19.9819 97.6985 19.6517 97.0577 19.5315C95.9449 19.3129 94.8043 19.4123 93.6783 19.3883Z" fill="#0F0E0E"/>
<path d="M1.50708 20.668C2.18995 20.4349 2.86965 20.1928 3.55116 19.9561C3.59013 20.0581 3.62774 20.1611 3.66489 20.2646C3.26886 20.7412 2.88143 21.225 2.48177 21.6984C2.97795 21.4969 3.4773 21.2991 3.97801 21.1071C4.01154 21.2074 4.04734 21.3063 4.08359 21.4057C3.41386 21.669 2.73733 21.9152 2.06896 22.1827C2.02365 22.0797 1.98423 21.9744 1.94934 21.8678C2.34266 21.3971 2.73054 20.9214 3.12204 20.4489C2.61861 20.6183 2.11926 20.7999 1.61628 20.9707C1.57958 20.8699 1.54288 20.7687 1.50708 20.668Z" fill="#0F0E0E"/>
<path d="M21.2513 20.6533C21.9084 20.9447 22.5632 21.2419 23.2188 21.5369C23.082 21.826 22.9891 22.1418 22.7915 22.3979C22.5369 22.7105 21.975 22.599 21.8164 22.2434C21.7801 22.163 21.7783 22.074 21.7702 21.9882C21.4018 22.0998 21.0089 22.0298 20.6296 22.0505C20.6772 21.9417 20.7252 21.8333 20.7697 21.7235C21.0524 21.7018 21.3374 21.7357 21.6193 21.7018C21.8078 21.6806 21.8667 21.4755 21.931 21.3287C21.6564 21.2103 21.3864 21.0834 21.1131 20.9632C21.1594 20.8602 21.2051 20.7568 21.2513 20.6533ZM22.0457 21.9417C22.0602 22.1815 22.3869 22.3338 22.5749 22.1802C22.6973 22.0582 22.7458 21.8861 22.8228 21.7357C22.6175 21.6313 22.4041 21.545 22.1952 21.4493C22.1313 21.6074 22.0362 21.765 22.0457 21.9417Z" fill="#0F0E0E"/>
<path d="M12.0936 22.4386C12.2177 22.2741 12.3224 22.0943 12.4579 21.9389C12.5734 21.9033 12.6142 22.027 12.6722 22.0975C12.8544 22.3681 13.0588 22.6238 13.2318 22.8998C13.1797 23.0055 13.0044 22.9576 12.906 23.0127C13.0533 23.2278 13.1852 23.4545 13.3556 23.6528C13.5531 23.4843 13.7561 23.3222 13.9482 23.1478C13.8617 23.0904 13.7665 23.0475 13.6727 23.0041C13.8558 22.8085 14.1046 22.6893 14.3139 22.5244C14.415 22.4675 14.5002 22.3491 14.6257 22.3591C14.4843 22.9061 14.2731 23.4356 14.1127 23.9781C13.5944 23.8137 13.0456 23.7847 12.5059 23.7789C11.964 23.7847 11.4139 23.8128 10.8941 23.9781C10.7337 23.4717 10.5629 22.968 10.3984 22.463C10.3644 22.4142 10.3912 22.3085 10.4632 22.3663C10.7709 22.5678 11.0808 22.7679 11.3758 22.9879C11.282 23.0421 11.1864 23.0927 11.0935 23.1482C11.2784 23.319 11.4664 23.4861 11.6536 23.6542C11.8176 23.4514 11.9558 23.2296 12.0986 23.0127C11.9894 22.9775 11.8756 22.9581 11.7628 22.9404C11.8444 22.7557 11.983 22.6057 12.0936 22.4386Z" fill="#0F0E0E"/>
<path d="M3.84207 22.5641C4.03692 22.4345 4.28025 22.3319 4.51407 22.4191C4.88382 22.5546 5.13758 22.9558 5.11039 23.3465C5.09453 23.5765 4.90784 23.7404 4.73429 23.8683C4.35592 24.1402 3.97665 24.4104 3.59466 24.6769C3.53032 24.5816 3.46506 24.4872 3.39936 24.3932C3.75507 24.1434 4.10806 23.89 4.46331 23.6392C4.58747 23.5448 4.74426 23.4549 4.78232 23.2919C4.8231 23.0177 4.59336 22.7091 4.30245 22.7227C4.19144 22.7349 4.09764 22.8013 4.00565 22.8586C3.62593 23.1161 3.24575 23.3732 2.86557 23.6293C2.80077 23.5367 2.73598 23.4436 2.67163 23.351C3.06223 23.0899 3.44875 22.8216 3.84207 22.5641Z" fill="#0F0E0E"/>
<path d="M19.7913 23.2486C19.9449 23.0317 20.1157 22.828 20.282 22.6211C20.8444 23.0706 21.409 23.5178 21.9718 23.9673C21.738 24.2446 21.5377 24.5577 21.2472 24.7808C20.9672 25.0008 20.5621 24.9986 20.2521 24.8432C19.9186 24.6751 19.6386 24.3598 19.5883 23.9817C19.5475 23.7206 19.6431 23.46 19.7913 23.2486ZM19.9463 23.572C19.838 23.7965 19.9064 24.0694 20.065 24.2523C20.263 24.4868 20.5675 24.6833 20.8879 24.6119C21.1829 24.5464 21.3442 24.2672 21.5313 24.0576C21.1222 23.7288 20.7143 23.3976 20.2984 23.0783C20.1588 23.2246 20.0351 23.3899 19.9463 23.572Z" fill="#0F0E0E"/>
<path d="M11.8327 24.1652C12.4059 24.1173 12.9877 24.1196 13.5555 24.2185C13.6982 24.2506 13.8545 24.2727 13.9714 24.3671C14.0408 24.4204 13.9624 24.4945 13.908 24.5166C13.6687 24.625 13.4023 24.649 13.144 24.677C12.5772 24.7226 12.0021 24.7186 11.4407 24.6201C11.2961 24.5862 11.1348 24.5636 11.0211 24.4602C10.9767 24.3856 11.0651 24.3373 11.1212 24.312C11.3464 24.2189 11.592 24.1918 11.8327 24.1652Z" fill="#0F0E0E"/>
<path d="M11.0334 27.9371C11.2128 27.8268 11.4693 27.9669 11.4756 28.1756C11.4996 28.3942 11.2391 28.5686 11.046 28.4606C10.8358 28.3685 10.8281 28.0392 11.0334 27.9371Z" fill="#0F0E0E"/>
<path d="M14.0635 28.4254C14.2615 28.3133 14.5284 28.4976 14.4944 28.7212C14.4799 28.9399 14.194 29.0659 14.0227 28.9277C13.8451 28.8098 13.87 28.513 14.0635 28.4254Z" fill="#0F0E0E"/>
</g>
<defs>
<clipPath id="clip0_2457_385">
<rect width="102" height="30" fill="white" transform="translate(0 5)"/>
</clipPath>
</defs>
</svg>
